<svg xmlns="http://www.w3.org/2000/svg" xmlns:xlink="http://www.w3.org/1999/xlink" width="200" zoomAndPan="magnify" viewBox="0 0 150 56.249996" height="75" preserveAspectRatio="xMidYMid meet" version="1.0"><defs><g/><clipPath id="2c5ff81181"><path d="M 0.988281 0 L 149.011719 0 L 149.011719 55.511719 L 0.988281 55.511719 Z M 0.988281 0 " clip-rule="nonzero"/></clipPath><clipPath id="969586a296"><path d="M 0.980469 1.605469 L 15.902344 1.605469 L 15.902344 20.523438 L 0.980469 20.523438 Z M 0.980469 1.605469 " clip-rule="nonzero"/></clipPath><clipPath id="ff47f8b679"><path d="M 1.285156 5.839844 C 1.285156 4.15625 1.203125 3.382812 0.980469 2.140625 C 2.167969 1.867188 5.351562 1.644531 6.621094 1.644531 C 12.03125 1.644531 15.867188 5.480469 15.867188 10.835938 C 15.867188 13.402344 14.929688 15.941406 13.300781 17.734375 C 11.644531 19.527344 7.734375 20.523438 4.585938 20.523438 C 3.5625 20.523438 2.664062 20.4375 1.148438 20.246094 C 1.339844 18.121094 1.367188 17.511719 1.367188 16.160156 Z M 4.320312 17.625 C 4.761719 17.707031 6.042969 17.734375 6.457031 17.734375 C 8.691406 17.734375 10.347656 16.960938 11.476562 15.363281 C 12.363281 14.148438 12.859375 12.492188 12.859375 10.808594 C 12.859375 6.945312 10.484375 4.542969 6.621094 4.542969 C 6.070312 4.542969 4.707031 4.597656 4.183594 4.710938 Z M 4.320312 17.625 " clip-rule="nonzero"/></clipPath><clipPath id="038077ebf8"><path d="M 0.980469 0.605469 L 15.902344 0.605469 L 15.902344 19.523438 L 0.980469 19.523438 Z M 0.980469 0.605469 " clip-rule="nonzero"/></clipPath><clipPath id="a5f021781a"><path d="M 1.285156 4.839844 C 1.285156 3.15625 1.203125 2.382812 0.980469 1.140625 C 2.167969 0.867188 5.351562 0.644531 6.621094 0.644531 C 12.03125 0.644531 15.867188 4.480469 15.867188 9.835938 C 15.867188 12.402344 14.929688 14.941406 13.300781 16.734375 C 11.644531 18.527344 7.734375 19.523438 4.585938 19.523438 C 3.5625 19.523438 2.664062 19.4375 1.148438 19.246094 C 1.339844 17.121094 1.367188 16.511719 1.367188 15.160156 Z M 4.320312 16.625 C 4.761719 16.707031 6.042969 16.734375 6.457031 16.734375 C 8.691406 16.734375 10.347656 15.960938 11.476562 14.363281 C 12.363281 13.148438 12.859375 11.492188 12.859375 9.808594 C 12.859375 5.945312 10.484375 3.542969 6.621094 3.542969 C 6.070312 3.542969 4.707031 3.597656 4.183594 3.710938 Z M 4.320312 16.625 " clip-rule="nonzero"/></clipPath><clipPath id="98df353ca5"><rect x="0" width="16" y="0" height="20"/></clipPath><clipPath id="6068b1fb15"><path d="M 20.230469 1.976562 L 23.5 1.976562 L 23.5 20.335938 L 20.230469 20.335938 Z M 20.230469 1.976562 " clip-rule="nonzero"/></clipPath><clipPath id="b2f63ec068"><path d="M 20.230469 20.164062 L 20.339844 17.816406 L 20.367188 15.832031 L 20.394531 5.730469 C 20.367188 3.824219 20.339844 2.609375 20.285156 2.003906 L 23.488281 1.976562 L 23.488281 2.140625 C 23.347656 4.488281 23.347656 4.488281 23.347656 5.039062 L 23.347656 5.425781 L 23.292969 17.375 C 23.292969 18.148438 23.375 19.886719 23.429688 20.328125 L 20.230469 20.328125 Z M 20.230469 20.164062 " clip-rule="nonzero"/></clipPath><clipPath id="17fb3cf400"><path d="M 0.230469 0.976562 L 3.5 0.976562 L 3.5 19.335938 L 0.230469 19.335938 Z M 0.230469 0.976562 " clip-rule="nonzero"/></clipPath><clipPath id="47670a8594"><path d="M 0.230469 19.164062 L 0.339844 16.816406 L 0.367188 14.832031 L 0.394531 4.730469 C 0.367188 2.824219 0.339844 1.609375 0.285156 1.003906 L 3.488281 0.976562 L 3.488281 1.140625 C 3.347656 3.488281 3.347656 3.488281 3.347656 4.039062 L 3.347656 4.425781 L 3.292969 16.375 C 3.292969 17.148438 3.375 18.886719 3.429688 19.328125 L 0.230469 19.328125 Z M 0.230469 19.164062 " clip-rule="nonzero"/></clipPath><clipPath id="9657f37c0b"><rect x="0" width="4" y="0" height="20"/></clipPath><clipPath id="b7e7bdf19f"><path d="M 28.773438 0.984375 L 43.734375 0.984375 L 43.734375 20.648438 L 28.773438 20.648438 Z M 28.773438 0.984375 " clip-rule="nonzero"/></clipPath><clipPath id="3c731ea95b"><path d="M 28.773438 20.328125 C 28.914062 19.003906 29.078125 12.710938 29.078125 8.875 C 29.078125 7.027344 29.050781 4.875 28.96875 0.984375 L 40.835938 13.511719 L 40.753906 2.058594 L 43.734375 2.085938 C 43.707031 3.300781 43.707031 4.238281 43.679688 4.789062 C 43.621094 6.722656 43.566406 7.992188 43.59375 8.351562 C 43.621094 8.738281 43.621094 8.820312 43.621094 8.902344 L 43.539062 20.632812 L 31.699219 8.074219 L 31.8125 20.328125 Z M 28.773438 20.328125 " clip-rule="nonzero"/></clipPath><clipPath id="df0c2d5411"><path d="M 0.773438 0.984375 L 15.734375 0.984375 L 15.734375 20.648438 L 0.773438 20.648438 Z M 0.773438 0.984375 " clip-rule="nonzero"/></clipPath><clipPath id="46d93ca333"><path d="M 0.773438 20.328125 C 0.914062 19.003906 1.078125 12.710938 1.078125 8.875 C 1.078125 7.027344 1.050781 4.875 0.96875 0.984375 L 12.835938 13.511719 L 12.753906 2.058594 L 15.734375 2.085938 C 15.707031 3.300781 15.707031 4.238281 15.679688 4.789062 C 15.621094 6.722656 15.566406 7.992188 15.59375 8.351562 C 15.621094 8.738281 15.621094 8.820312 15.621094 8.902344 L 15.539062 20.632812 L 3.699219 8.074219 L 3.8125 20.328125 Z M 0.773438 20.328125 " clip-rule="nonzero"/></clipPath><clipPath id="db3e7c9df8"><rect x="0" width="16" y="0" height="21"/></clipPath><clipPath id="ae10f5af9c"><path d="M 46.878906 0.902344 L 63.328125 0.902344 L 63.328125 20.355469 L 46.878906 20.355469 Z M 46.878906 0.902344 " clip-rule="nonzero"/></clipPath><clipPath id="be53f6a633"><path d="M 57.007812 12.960938 L 54.96875 7.800781 L 53.007812 12.960938 L 51.929688 15.472656 L 50.027344 20.328125 L 46.878906 20.328125 L 55.050781 0.902344 L 63.328125 20.328125 L 60.183594 20.328125 L 58.140625 15.472656 Z M 57.007812 12.960938 " clip-rule="nonzero"/></clipPath><clipPath id="19bfd2e97d"><path d="M 0.878906 0.902344 L 17.328125 0.902344 L 17.328125 20.355469 L 0.878906 20.355469 Z M 0.878906 0.902344 " clip-rule="nonzero"/></clipPath><clipPath id="f7d6c41391"><path d="M 11.007812 12.960938 L 8.96875 7.800781 L 7.007812 12.960938 L 5.929688 15.472656 L 4.027344 20.328125 L 0.878906 20.328125 L 9.050781 0.902344 L 17.328125 20.328125 L 14.183594 20.328125 L 12.140625 15.472656 Z M 11.007812 12.960938 " clip-rule="nonzero"/></clipPath><clipPath id="1e60a11f21"><rect x="0" width="18" y="0" height="21"/></clipPath><clipPath id="1c6451d4ed"><path d="M 66.289062 1.09375 L 83.152344 1.09375 L 83.152344 20.371094 L 66.289062 20.371094 Z M 66.289062 1.09375 " clip-rule="nonzero"/></clipPath><clipPath id="523f86f6c2"><path d="M 67.0625 1.367188 L 74.597656 11.582031 L 82.1875 1.09375 C 82.15625 1.480469 82.15625 1.726562 82.15625 1.753906 C 82.15625 2.636719 82.242188 3.992188 83.097656 20.136719 L 83.125 20.328125 L 80.117188 20.328125 L 79.730469 8.902344 L 74.488281 15.996094 L 69.433594 9.179688 L 69.105469 20.328125 L 66.289062 20.328125 Z M 67.0625 1.367188 " clip-rule="nonzero"/></clipPath><clipPath id="11989342ec"><path d="M 0.289062 0.09375 L 17.152344 0.09375 L 17.152344 19.371094 L 0.289062 19.371094 Z M 0.289062 0.09375 " clip-rule="nonzero"/></clipPath><clipPath id="19e3bfb860"><path d="M 1.0625 0.367188 L 8.597656 10.582031 L 16.1875 0.09375 C 16.15625 0.480469 16.15625 0.726562 16.15625 0.753906 C 16.15625 1.636719 16.242188 2.992188 17.097656 19.136719 L 17.125 19.328125 L 14.117188 19.328125 L 13.730469 7.902344 L 8.488281 14.996094 L 3.433594 8.179688 L 3.105469 19.328125 L 0.289062 19.328125 Z M 1.0625 0.367188 " clip-rule="nonzero"/></clipPath><clipPath id="af664f198e"><rect x="0" width="18" y="0" height="20"/></clipPath><clipPath id="02b955898d"><path d="M 88.171875 1.976562 L 91.425781 1.976562 L 91.425781 20.332031 L 88.171875 20.332031 Z M 88.171875 1.976562 " clip-rule="nonzero"/></clipPath><clipPath id="499a5e70b9"><path d="M 88.171875 20.164062 L 88.28125 17.816406 L 88.308594 15.832031 L 88.335938 5.730469 C 88.308594 3.824219 88.28125 2.609375 88.226562 2.003906 L 91.425781 1.976562 L 91.425781 2.140625 C 91.289062 4.488281 91.289062 4.488281 91.289062 5.039062 L 91.289062 5.425781 L 91.234375 17.375 C 91.234375 18.148438 91.316406 19.886719 91.371094 20.328125 L 88.171875 20.328125 Z M 88.171875 20.164062 " clip-rule="nonzero"/></clipPath><clipPath id="b7089ad72c"><path d="M 0.171875 0.976562 L 3.425781 0.976562 L 3.425781 19.332031 L 0.171875 19.332031 Z M 0.171875 0.976562 " clip-rule="nonzero"/></clipPath><clipPath id="18466fa159"><path d="M 0.171875 19.164062 L 0.28125 16.816406 L 0.308594 14.832031 L 0.335938 4.730469 C 0.308594 2.824219 0.28125 1.609375 0.226562 1.003906 L 3.425781 0.976562 L 3.425781 1.140625 C 3.289062 3.488281 3.289062 3.488281 3.289062 4.039062 L 3.289062 4.425781 L 3.234375 16.375 C 3.234375 17.148438 3.316406 18.886719 3.371094 19.328125 L 0.171875 19.328125 Z M 0.171875 19.164062 " clip-rule="nonzero"/></clipPath><clipPath id="6597fcd432"><rect x="0" width="4" y="0" height="20"/></clipPath><clipPath id="37176d5824"><path d="M 95.554688 2.085938 L 108.964844 2.085938 L 108.964844 20.367188 L 95.554688 20.367188 Z M 95.554688 2.085938 " clip-rule="nonzero"/></clipPath><clipPath id="736a7812c6"><path d="M 104.164062 4.734375 L 102.011719 4.710938 C 101.875 4.734375 100.960938 4.734375 99.222656 4.734375 L 95.941406 4.789062 L 95.914062 2.113281 L 108.964844 2.085938 L 100.164062 17.816406 L 108.558594 17.707031 L 108.585938 20.328125 L 95.554688 20.328125 Z M 104.164062 4.734375 " clip-rule="nonzero"/></clipPath><clipPath id="2981464aaa"><path d="M 0.554688 0.0859375 L 13.964844 0.0859375 L 13.964844 18.367188 L 0.554688 18.367188 Z M 0.554688 0.0859375 " clip-rule="nonzero"/></clipPath><clipPath id="59b9d83127"><path d="M 9.164062 2.734375 L 7.011719 2.710938 C 6.875 2.734375 5.960938 2.734375 4.222656 2.734375 L 0.941406 2.789062 L 0.914062 0.113281 L 13.964844 0.0859375 L 5.164062 15.816406 L 13.558594 15.707031 L 13.585938 18.328125 L 0.554688 18.328125 Z M 9.164062 2.734375 " clip-rule="nonzero"/></clipPath><clipPath id="da8fefecf0"><rect x="0" width="14" y="0" height="19"/></clipPath><clipPath id="e4c736cd43"><path d="M 112.792969 2.03125 L 124.644531 2.03125 L 124.644531 20.363281 L 112.792969 20.363281 Z M 112.792969 2.03125 " clip-rule="nonzero"/></clipPath><clipPath id="69c8de1358"><path d="M 112.820312 20.328125 C 112.960938 18.753906 113.015625 18.121094 112.988281 17.074219 L 113.015625 5.949219 C 112.960938 3.824219 112.90625 2.859375 112.792969 2.113281 L 124.46875 2.03125 L 124 4.789062 C 123.53125 4.710938 122.839844 4.679688 120.878906 4.652344 L 115.96875 4.679688 L 116.023438 9.285156 L 121.265625 9.285156 L 122.785156 9.226562 C 123.472656 9.171875 123.917969 9.171875 123.972656 9.144531 C 124 9.144531 124.054688 9.144531 124.164062 9.117188 L 123.640625 12.070312 L 115.96875 12.015625 L 115.941406 17.625 L 119.554688 17.652344 C 121.652344 17.597656 123.722656 17.457031 124.605469 17.320312 L 124.054688 20.328125 Z M 112.820312 20.328125 " clip-rule="nonzero"/></clipPath><clipPath id="c87c8964b0"><path d="M 0.792969 0.03125 L 12.644531 0.03125 L 12.644531 18.363281 L 0.792969 18.363281 Z M 0.792969 0.03125 " clip-rule="nonzero"/></clipPath><clipPath id="694c6caf5f"><path d="M 0.820312 18.328125 C 0.960938 16.753906 1.015625 16.121094 0.988281 15.074219 L 1.015625 3.949219 C 0.960938 1.824219 0.90625 0.859375 0.792969 0.113281 L 12.46875 0.03125 L 12 2.789062 C 11.53125 2.710938 10.839844 2.679688 8.878906 2.652344 L 3.96875 2.679688 L 4.023438 7.285156 L 9.265625 7.285156 L 10.785156 7.226562 C 11.472656 7.171875 11.917969 7.171875 11.972656 7.144531 C 12 7.144531 12.054688 7.144531 12.164062 7.117188 L 11.640625 10.070312 L 3.96875 10.015625 L 3.941406 15.625 L 7.554688 15.652344 C 9.652344 15.597656 11.722656 15.457031 12.605469 15.320312 L 12.054688 18.328125 Z M 0.820312 18.328125 " clip-rule="nonzero"/></clipPath><clipPath id="aa5c2ffee6"><rect x="0" width="13" y="0" height="19"/></clipPath><clipPath id="d74012e835"><rect x="0" width="125" y="0" height="34"/></clipPath></defs><g clip-path="url(#2c5ff81181)"><path fill="#ffffff" d="M 0.988281 0 L 149.011719 0 L 149.011719 55.511719 L 0.988281 55.511719 Z M 0.988281 0 " fill-opacity="1" fill-rule="nonzero"/></g><g transform="matrix(1, 0, 0, 1, 12, 10)"><g clip-path="url(#d74012e835)"><g clip-path="url(#969586a296)"><g clip-path="url(#ff47f8b679)"><g transform="matrix(1, 0, 0, 1, -0.000000000000001776, 1)"><g clip-path="url(#98df353ca5)"><g clip-path="url(#038077ebf8)"><g clip-path="url(#a5f021781a)"><path fill="#f15d63" d="M 0.980469 0.644531 L 15.863281 0.644531 L 15.863281 19.523438 L 0.980469 19.523438 Z M 0.980469 0.644531 " fill-opacity="1" fill-rule="nonzero"/></g></g></g></g></g></g><g clip-path="url(#6068b1fb15)"><g clip-path="url(#b2f63ec068)"><g transform="matrix(1, 0, 0, 1, 20, 1)"><g clip-path="url(#9657f37c0b)"><g clip-path="url(#17fb3cf400)"><g clip-path="url(#47670a8594)"><path fill="#f15d63" d="M 0.230469 0.976562 L 3.488281 0.976562 L 3.488281 19.324219 L 0.230469 19.324219 Z M 0.230469 0.976562 " fill-opacity="1" fill-rule="nonzero"/></g></g></g></g></g></g><g clip-path="url(#b7e7bdf19f)"><g clip-path="url(#3c731ea95b)"><g transform="matrix(1, 0, 0, 1, 28, 0.000000000000003553)"><g clip-path="url(#db3e7c9df8)"><g clip-path="url(#df0c2d5411)"><g clip-path="url(#46d93ca333)"><path fill="#f15d63" d="M 0.773438 0.984375 L 15.734375 0.984375 L 15.734375 20.648438 L 0.773438 20.648438 Z M 0.773438 0.984375 " fill-opacity="1" fill-rule="nonzero"/></g></g></g></g></g></g><g clip-path="url(#ae10f5af9c)"><g clip-path="url(#be53f6a633)"><g transform="matrix(1, 0, 0, 1, 46, 0.000000000000003553)"><g clip-path="url(#1e60a11f21)"><g clip-path="url(#19bfd2e97d)"><g clip-path="url(#f7d6c41391)"><path fill="#f15d63" d="M 0.878906 0.902344 L 17.328125 0.902344 L 17.328125 20.316406 L 0.878906 20.316406 Z M 0.878906 0.902344 " fill-opacity="1" fill-rule="nonzero"/></g></g></g></g></g></g><g clip-path="url(#1c6451d4ed)"><g clip-path="url(#523f86f6c2)"><g transform="matrix(1, 0, 0, 1, 66, 1)"><g clip-path="url(#af664f198e)"><g clip-path="url(#11989342ec)"><g clip-path="url(#19e3bfb860)"><path fill="#f15d63" d="M 0.289062 0.09375 L 17.113281 0.09375 L 17.113281 19.328125 L 0.289062 19.328125 Z M 0.289062 0.09375 " fill-opacity="1" fill-rule="nonzero"/></g></g></g></g></g></g><g clip-path="url(#02b955898d)"><g clip-path="url(#499a5e70b9)"><g transform="matrix(1, 0, 0, 1, 88, 1)"><g clip-path="url(#6597fcd432)"><g clip-path="url(#b7089ad72c)"><g clip-path="url(#18466fa159)"><path fill="#f15d63" d="M 0.171875 0.976562 L 3.425781 0.976562 L 3.425781 19.332031 L 0.171875 19.332031 Z M 0.171875 0.976562 " fill-opacity="1" fill-rule="nonzero"/></g></g></g></g></g></g><g clip-path="url(#37176d5824)"><g clip-path="url(#736a7812c6)"><g transform="matrix(1, 0, 0, 1, 95, 2)"><g clip-path="url(#da8fefecf0)"><g clip-path="url(#2981464aaa)"><g clip-path="url(#59b9d83127)"><path fill="#f15d63" d="M 0.554688 0.0859375 L 13.964844 0.0859375 L 13.964844 18.328125 L 0.554688 18.328125 Z M 0.554688 0.0859375 " fill-opacity="1" fill-rule="nonzero"/></g></g></g></g></g></g><g clip-path="url(#e4c736cd43)"><g clip-path="url(#69c8de1358)"><g transform="matrix(1, 0, 0, 1, 112, 2)"><g clip-path="url(#aa5c2ffee6)"><g clip-path="url(#c87c8964b0)"><g clip-path="url(#694c6caf5f)"><path fill="#f15d63" d="M 0.792969 0.03125 L 12.605469 0.03125 L 12.605469 18.324219 L 0.792969 18.324219 Z M 0.792969 0.03125 " fill-opacity="1" fill-rule="nonzero"/></g></g></g></g></g></g><g fill="#3d3d3b" fill-opacity="1"><g transform="translate(40.433457, 31.415738)"><g><path d="M 3.203125 0.125 C 2.421875 0.125 1.75 -0.144531 1.1875 -0.6875 C 0.632812 -1.226562 0.359375 -1.957031 0.359375 -2.875 C 0.359375 -3.476562 0.5 -4.007812 0.78125 -4.46875 C 1.0625 -4.9375 1.414062 -5.28125 1.84375 -5.5 C 2.269531 -5.726562 2.722656 -5.84375 3.203125 -5.84375 C 3.847656 -5.84375 4.394531 -5.679688 4.84375 -5.359375 C 5.289062 -5.035156 5.585938 -4.59375 5.734375 -4.03125 L 5 -3.765625 C 4.882812 -4.203125 4.671875 -4.535156 4.359375 -4.765625 C 4.054688 -5.003906 3.671875 -5.125 3.203125 -5.125 C 2.640625 -5.125 2.160156 -4.925781 1.765625 -4.53125 C 1.367188 -4.132812 1.171875 -3.578125 1.171875 -2.859375 C 1.171875 -2.148438 1.367188 -1.597656 1.765625 -1.203125 C 2.160156 -0.804688 2.640625 -0.609375 3.203125 -0.609375 C 3.671875 -0.609375 4.0625 -0.734375 4.375 -0.984375 C 4.6875 -1.234375 4.90625 -1.566406 5.03125 -1.984375 L 5.734375 -1.71875 C 5.578125 -1.164062 5.273438 -0.71875 4.828125 -0.375 C 4.390625 -0.0390625 3.847656 0.125 3.203125 0.125 Z M 3.203125 0.125 "/></g></g></g><g fill="#3d3d3b" fill-opacity="1"><g transform="translate(46.48697, 31.415738)"><g><path d="M 3.6875 0 L 2.390625 -2.34375 L 1.53125 -2.34375 L 1.53125 0 L 0.734375 0 L 0.734375 -5.734375 L 2.890625 -5.734375 C 3.410156 -5.734375 3.832031 -5.566406 4.15625 -5.234375 C 4.476562 -4.910156 4.640625 -4.503906 4.640625 -4.015625 C 4.640625 -3.609375 4.515625 -3.253906 4.265625 -2.953125 C 4.015625 -2.660156 3.675781 -2.476562 3.25 -2.40625 L 4.609375 0 Z M 1.53125 -3.046875 L 2.734375 -3.046875 C 3.054688 -3.046875 3.316406 -3.132812 3.515625 -3.3125 C 3.722656 -3.488281 3.828125 -3.722656 3.828125 -4.015625 C 3.828125 -4.316406 3.722656 -4.554688 3.515625 -4.734375 C 3.316406 -4.921875 3.054688 -5.015625 2.734375 -5.015625 L 1.53125 -5.015625 Z M 1.53125 -3.046875 "/></g></g></g><g fill="#3d3d3b" fill-opacity="1"><g transform="translate(51.483138, 31.415738)"><g><path d="M 6.921875 0 L 6.125 0 L 6.125 -4.453125 L 4.171875 0 L 3.453125 0 L 1.515625 -4.453125 L 1.515625 0 L 0.734375 0 L 0.734375 -5.734375 L 1.796875 -5.734375 L 3.828125 -1.0625 L 5.859375 -5.734375 L 6.921875 -5.734375 Z M 6.921875 0 "/></g></g></g><g fill="#3d3d3b" fill-opacity="1"><g transform="translate(59.118636, 31.415738)"><g/></g></g><g fill="#3d3d3b" fill-opacity="1"><g transform="translate(61.136472, 31.415738)"><g><path d="M 1.390625 1.203125 L 0.734375 1.203125 L 0.734375 -6.34375 L 1.390625 -6.34375 Z M 1.390625 1.203125 "/></g></g></g><g fill="#3d3d3b" fill-opacity="1"><g transform="translate(63.251167, 31.415738)"><g/></g></g><g fill="#3d3d3b" fill-opacity="1"><g transform="translate(65.269004, 31.415738)"><g><path d="M 4.6875 0 L 4.078125 -1.59375 L 1.53125 -1.59375 L 0.921875 0 L 0.078125 0 L 2.359375 -5.734375 L 3.265625 -5.734375 L 5.546875 0 Z M 2.796875 -4.90625 L 1.8125 -2.328125 L 3.78125 -2.328125 Z M 2.796875 -4.90625 "/></g></g></g><g fill="#3d3d3b" fill-opacity="1"><g transform="translate(70.894736, 31.415738)"><g><path d="M 4.703125 -5 L 2.78125 -5 L 2.78125 0 L 2 0 L 2 -5 L 0.078125 -5 L 0.078125 -5.734375 L 4.703125 -5.734375 Z M 4.703125 -5 "/></g></g></g><g fill="#3d3d3b" fill-opacity="1"><g transform="translate(75.672977, 31.415738)"><g><path d="M 4.203125 0 L 0.734375 0 L 0.734375 -5.734375 L 4.203125 -5.734375 L 4.203125 -5 L 1.515625 -5 L 1.515625 -3.234375 L 3.953125 -3.234375 L 3.953125 -2.484375 L 1.515625 -2.484375 L 1.515625 -0.734375 L 4.203125 -0.734375 Z M 4.203125 0 "/></g></g></g><g fill="#3d3d3b" fill-opacity="1"><g transform="translate(80.362429, 31.415738)"><g><path d="M 5.4375 0 L 4.609375 0 L 1.515625 -4.671875 L 1.515625 0 L 0.734375 0 L 0.734375 -5.734375 L 1.78125 -5.734375 L 4.640625 -1.328125 L 4.640625 -5.734375 L 5.4375 -5.734375 Z M 5.4375 0 "/></g></g></g><g fill="#3d3d3b" fill-opacity="1"><g transform="translate(86.520871, 31.415738)"><g><path d="M 1.515625 -0.703125 L 2.6875 -0.703125 C 3.25 -0.703125 3.710938 -0.882812 4.078125 -1.25 C 4.453125 -1.625 4.640625 -2.160156 4.640625 -2.859375 C 4.640625 -3.546875 4.457031 -4.078125 4.09375 -4.453125 C 3.726562 -4.835938 3.265625 -5.03125 2.703125 -5.03125 L 1.515625 -5.03125 Z M 2.71875 0 L 0.734375 0 L 0.734375 -5.734375 L 2.734375 -5.734375 C 3.503906 -5.734375 4.148438 -5.476562 4.671875 -4.96875 C 5.191406 -4.457031 5.453125 -3.753906 5.453125 -2.859375 C 5.453125 -1.960938 5.1875 -1.257812 4.65625 -0.75 C 4.132812 -0.25 3.488281 0 2.71875 0 Z M 2.71875 0 "/></g></g></g><g fill="#3d3d3b" fill-opacity="1"><g transform="translate(92.332246, 31.415738)"><g><path d="M 1.53125 0 L 0.734375 0 L 0.734375 -5.734375 L 1.53125 -5.734375 Z M 1.53125 0 "/></g></g></g><g fill="#3d3d3b" fill-opacity="1"><g transform="translate(94.592223, 31.415738)"><g><path d="M 6.921875 0 L 6.125 0 L 6.125 -4.453125 L 4.171875 0 L 3.453125 0 L 1.515625 -4.453125 L 1.515625 0 L 0.734375 0 L 0.734375 -5.734375 L 1.796875 -5.734375 L 3.828125 -1.0625 L 5.859375 -5.734375 L 6.921875 -5.734375 Z M 6.921875 0 "/></g></g></g><g fill="#3d3d3b" fill-opacity="1"><g transform="translate(102.227719, 31.415738)"><g><path d="M 4.203125 0 L 0.734375 0 L 0.734375 -5.734375 L 4.203125 -5.734375 L 4.203125 -5 L 1.515625 -5 L 1.515625 -3.234375 L 3.953125 -3.234375 L 3.953125 -2.484375 L 1.515625 -2.484375 L 1.515625 -0.734375 L 4.203125 -0.734375 Z M 4.203125 0 "/></g></g></g><g fill="#3d3d3b" fill-opacity="1"><g transform="translate(106.917171, 31.415738)"><g><path d="M 5.4375 0 L 4.609375 0 L 1.515625 -4.671875 L 1.515625 0 L 0.734375 0 L 0.734375 -5.734375 L 1.78125 -5.734375 L 4.640625 -1.328125 L 4.640625 -5.734375 L 5.4375 -5.734375 Z M 5.4375 0 "/></g></g></g><g fill="#3d3d3b" fill-opacity="1"><g transform="translate(113.075616, 31.415738)"><g><path d="M 4.703125 -5 L 2.78125 -5 L 2.78125 0 L 2 0 L 2 -5 L 0.078125 -5 L 0.078125 -5.734375 L 4.703125 -5.734375 Z M 4.703125 -5 "/></g></g></g><g fill="#3d3d3b" fill-opacity="1"><g transform="translate(117.853858, 31.415738)"><g><path d="M 1.78125 -4.53125 C 1.375 -4.132812 1.171875 -3.578125 1.171875 -2.859375 C 1.171875 -2.148438 1.375 -1.597656 1.78125 -1.203125 C 2.1875 -0.804688 2.671875 -0.609375 3.234375 -0.609375 C 3.804688 -0.609375 4.296875 -0.804688 4.703125 -1.203125 C 5.109375 -1.597656 5.3125 -2.148438 5.3125 -2.859375 C 5.3125 -3.578125 5.109375 -4.132812 4.703125 -4.53125 C 4.296875 -4.925781 3.804688 -5.125 3.234375 -5.125 C 2.671875 -5.125 2.1875 -4.925781 1.78125 -4.53125 Z M 0.359375 -2.875 C 0.359375 -3.332031 0.441406 -3.75 0.609375 -4.125 C 0.773438 -4.507812 0.992188 -4.820312 1.265625 -5.0625 C 1.535156 -5.3125 1.835938 -5.503906 2.171875 -5.640625 C 2.515625 -5.773438 2.867188 -5.84375 3.234375 -5.84375 C 3.597656 -5.84375 3.953125 -5.773438 4.296875 -5.640625 C 4.640625 -5.503906 4.945312 -5.3125 5.21875 -5.0625 C 5.488281 -4.820312 5.703125 -4.507812 5.859375 -4.125 C 6.023438 -3.75 6.109375 -3.332031 6.109375 -2.875 C 6.109375 -2.257812 5.96875 -1.71875 5.6875 -1.25 C 5.40625 -0.789062 5.046875 -0.445312 4.609375 -0.21875 C 4.179688 0.0078125 3.722656 0.125 3.234375 0.125 C 2.742188 0.125 2.285156 0.0078125 1.859375 -0.21875 C 1.429688 -0.445312 1.070312 -0.789062 0.78125 -1.25 C 0.5 -1.71875 0.359375 -2.257812 0.359375 -2.875 Z M 0.359375 -2.875 "/></g></g></g></g></g></svg>