<svg xmlns="http://www.w3.org/2000/svg" xmlns:xlink="http://www.w3.org/1999/xlink" width="200" zoomAndPan="magnify" viewBox="0 0 150 56.249996" height="75" preserveAspectRatio="xMidYMid meet" version="1.0"><defs><g/><clipPath id="12f15082ee"><path d="M 0.988281 0 L 149.011719 0 L 149.011719 55.511719 L 0.988281 55.511719 Z M 0.988281 0 " clip-rule="nonzero"/></clipPath><clipPath id="cf486ab4db"><path d="M 0.09375 1.632812 L 14.988281 1.632812 L 14.988281 20.515625 L 0.09375 20.515625 Z M 0.09375 1.632812 " clip-rule="nonzero"/></clipPath><clipPath id="5d0128be43"><path d="M 0.398438 5.859375 C 0.398438 4.179688 0.3125 3.410156 0.09375 2.167969 C 1.277344 1.894531 4.457031 1.671875 5.722656 1.671875 C 11.121094 1.671875 14.949219 5.503906 14.949219 10.847656 C 14.949219 13.410156 14.015625 15.941406 12.390625 17.734375 C 10.738281 19.523438 6.832031 20.515625 3.691406 20.515625 C 2.671875 20.515625 1.773438 20.433594 0.257812 20.242188 C 0.453125 18.121094 0.480469 17.511719 0.480469 16.164062 Z M 3.425781 17.625 C 3.867188 17.707031 5.144531 17.734375 5.558594 17.734375 C 7.789062 17.734375 9.441406 16.964844 10.570312 15.367188 C 11.453125 14.152344 11.949219 12.5 11.949219 10.820312 C 11.949219 6.964844 9.578125 4.566406 5.722656 4.566406 C 5.171875 4.566406 3.8125 4.621094 3.289062 4.734375 Z M 3.425781 17.625 " clip-rule="nonzero"/></clipPath><clipPath id="fd91c33952"><path d="M 0.09375 0.632812 L 14.988281 0.632812 L 14.988281 19.515625 L 0.09375 19.515625 Z M 0.09375 0.632812 " clip-rule="nonzero"/></clipPath><clipPath id="2daf413688"><path d="M 0.398438 4.859375 C 0.398438 3.179688 0.3125 2.410156 0.09375 1.167969 C 1.277344 0.894531 4.457031 0.671875 5.722656 0.671875 C 11.121094 0.671875 14.949219 4.503906 14.949219 9.847656 C 14.949219 12.410156 14.015625 14.941406 12.390625 16.734375 C 10.738281 18.523438 6.832031 19.515625 3.691406 19.515625 C 2.671875 19.515625 1.773438 19.433594 0.257812 19.242188 C 0.453125 17.121094 0.480469 16.511719 0.480469 15.164062 Z M 3.425781 16.625 C 3.867188 16.707031 5.144531 16.734375 5.558594 16.734375 C 7.789062 16.734375 9.441406 15.964844 10.570312 14.367188 C 11.453125 13.152344 11.949219 11.5 11.949219 9.820312 C 11.949219 5.964844 9.578125 3.566406 5.722656 3.566406 C 5.171875 3.566406 3.8125 3.621094 3.289062 3.734375 Z M 3.425781 16.625 " clip-rule="nonzero"/></clipPath><clipPath id="614792e9f6"><rect x="0" width="15" y="0" height="20"/></clipPath><clipPath id="e0a5cd1c8c"><path d="M 19.308594 2.003906 L 22.570312 2.003906 L 22.570312 20.332031 L 19.308594 20.332031 Z M 19.308594 2.003906 " clip-rule="nonzero"/></clipPath><clipPath id="263268efc4"><path d="M 19.308594 20.160156 L 19.417969 17.816406 L 19.445312 15.832031 L 19.472656 5.75 C 19.445312 3.851562 19.417969 2.636719 19.363281 2.03125 L 22.558594 2.003906 L 22.558594 2.167969 C 22.417969 4.511719 22.417969 4.511719 22.417969 5.0625 L 22.417969 5.449219 L 22.363281 17.375 C 22.363281 18.148438 22.445312 19.882812 22.503906 20.324219 L 19.308594 20.324219 Z M 19.308594 20.160156 " clip-rule="nonzero"/></clipPath><clipPath id="8446dbb4a2"><path d="M 0.308594 0.00390625 L 3.566406 0.00390625 L 3.566406 18.332031 L 0.308594 18.332031 Z M 0.308594 0.00390625 " clip-rule="nonzero"/></clipPath><clipPath id="21d56cc165"><path d="M 0.308594 18.160156 L 0.417969 15.816406 L 0.445312 13.832031 L 0.472656 3.75 C 0.445312 1.851562 0.417969 0.636719 0.363281 0.03125 L 3.558594 0.00390625 L 3.558594 0.167969 C 3.417969 2.511719 3.417969 2.511719 3.417969 3.0625 L 3.417969 3.449219 L 3.363281 15.375 C 3.363281 16.148438 3.445312 17.882812 3.503906 18.324219 L 0.308594 18.324219 Z M 0.308594 18.160156 " clip-rule="nonzero"/></clipPath><clipPath id="e75e8ca01e"><rect x="0" width="4" y="0" height="19"/></clipPath><clipPath id="9b3ec8389e"><path d="M 27.835938 1.011719 L 42.765625 1.011719 L 42.765625 20.644531 L 27.835938 20.644531 Z M 27.835938 1.011719 " clip-rule="nonzero"/></clipPath><clipPath id="f988a0aea7"><path d="M 27.835938 20.324219 C 27.972656 19.003906 28.140625 12.722656 28.140625 8.890625 C 28.140625 7.046875 28.113281 4.898438 28.03125 1.011719 L 39.875 13.519531 L 39.792969 2.085938 L 42.765625 2.113281 C 42.742188 3.328125 42.742188 4.261719 42.714844 4.8125 C 42.65625 6.742188 42.601562 8.007812 42.628906 8.367188 C 42.65625 8.753906 42.65625 8.835938 42.65625 8.917969 L 42.574219 20.625 L 30.757812 8.09375 L 30.867188 20.324219 Z M 27.835938 20.324219 " clip-rule="nonzero"/></clipPath><clipPath id="a59af6278c"><path d="M 0.835938 0.0117188 L 15.765625 0.0117188 L 15.765625 19.644531 L 0.835938 19.644531 Z M 0.835938 0.0117188 " clip-rule="nonzero"/></clipPath><clipPath id="1544f7e906"><path d="M 0.835938 19.324219 C 0.972656 18.003906 1.140625 11.722656 1.140625 7.890625 C 1.140625 6.046875 1.113281 3.898438 1.03125 0.0117188 L 12.875 12.519531 L 12.792969 1.085938 L 15.765625 1.113281 C 15.742188 2.328125 15.742188 3.261719 15.714844 3.8125 C 15.65625 5.742188 15.601562 7.007812 15.628906 7.367188 C 15.65625 7.753906 15.65625 7.835938 15.65625 7.917969 L 15.574219 19.625 L 3.757812 7.09375 L 3.867188 19.324219 Z M 0.835938 19.324219 " clip-rule="nonzero"/></clipPath><clipPath id="4ae502f727"><rect x="0" width="16" y="0" height="20"/></clipPath><clipPath id="371eca148d"><path d="M 45.910156 0.929688 L 62.328125 0.929688 L 62.328125 20.347656 L 45.910156 20.347656 Z M 45.910156 0.929688 " clip-rule="nonzero"/></clipPath><clipPath id="84c679743e"><path d="M 56.019531 12.96875 L 53.980469 7.816406 L 52.027344 12.96875 L 50.949219 15.476562 L 49.050781 20.324219 L 45.910156 20.324219 L 54.0625 0.929688 L 62.328125 20.324219 L 59.1875 20.324219 L 57.148438 15.476562 Z M 56.019531 12.96875 " clip-rule="nonzero"/></clipPath><clipPath id="61e056580d"><path d="M 0.910156 0.929688 L 17.328125 0.929688 L 17.328125 20.347656 L 0.910156 20.347656 Z M 0.910156 0.929688 " clip-rule="nonzero"/></clipPath><clipPath id="7d6705b0ae"><path d="M 11.019531 12.96875 L 8.980469 7.816406 L 7.027344 12.96875 L 5.949219 15.476562 L 4.050781 20.324219 L 0.910156 20.324219 L 9.0625 0.929688 L 17.328125 20.324219 L 14.1875 20.324219 L 12.148438 15.476562 Z M 11.019531 12.96875 " clip-rule="nonzero"/></clipPath><clipPath id="ec7273d420"><rect x="0" width="18" y="0" height="21"/></clipPath><clipPath id="54a900e24c"><path d="M 65.28125 1.121094 L 82.113281 1.121094 L 82.113281 20.363281 L 65.28125 20.363281 Z M 65.28125 1.121094 " clip-rule="nonzero"/></clipPath><clipPath id="5840a145a4"><path d="M 66.054688 1.398438 L 73.574219 11.589844 L 81.152344 1.121094 C 81.121094 1.507812 81.121094 1.757812 81.121094 1.785156 C 81.121094 2.664062 81.207031 4.015625 82.058594 20.128906 L 82.085938 20.324219 L 79.085938 20.324219 L 78.699219 8.917969 L 73.464844 16 L 68.421875 9.195312 L 68.09375 20.324219 L 65.28125 20.324219 Z M 66.054688 1.398438 " clip-rule="nonzero"/></clipPath><clipPath id="59d82ff9e6"><path d="M 0.28125 0.121094 L 17.113281 0.121094 L 17.113281 19.363281 L 0.28125 19.363281 Z M 0.28125 0.121094 " clip-rule="nonzero"/></clipPath><clipPath id="55e1ade69d"><path d="M 1.054688 0.398438 L 8.574219 10.589844 L 16.152344 0.121094 C 16.121094 0.507812 16.121094 0.757812 16.121094 0.785156 C 16.121094 1.664062 16.207031 3.015625 17.058594 19.128906 L 17.085938 19.324219 L 14.085938 19.324219 L 13.699219 7.917969 L 8.464844 15 L 3.421875 8.195312 L 3.09375 19.324219 L 0.28125 19.324219 Z M 1.054688 0.398438 " clip-rule="nonzero"/></clipPath><clipPath id="f7883156b9"><rect x="0" width="18" y="0" height="20"/></clipPath><clipPath id="91eab5eacb"><path d="M 87.125 2.003906 L 90.375 2.003906 L 90.375 20.324219 L 87.125 20.324219 Z M 87.125 2.003906 " clip-rule="nonzero"/></clipPath><clipPath id="7f0782bf55"><path d="M 87.125 20.160156 L 87.234375 17.816406 L 87.261719 15.832031 L 87.289062 5.75 C 87.261719 3.851562 87.234375 2.636719 87.179688 2.03125 L 90.375 2.003906 L 90.375 2.167969 C 90.238281 4.511719 90.238281 4.511719 90.238281 5.0625 L 90.238281 5.449219 L 90.183594 17.375 C 90.183594 18.148438 90.265625 19.882812 90.320312 20.324219 L 87.125 20.324219 Z M 87.125 20.160156 " clip-rule="nonzero"/></clipPath><clipPath id="bf4b9c1422"><path d="M 0.125 0.00390625 L 3.375 0.00390625 L 3.375 18.324219 L 0.125 18.324219 Z M 0.125 0.00390625 " clip-rule="nonzero"/></clipPath><clipPath id="5ede04c0d0"><path d="M 0.125 18.160156 L 0.234375 15.816406 L 0.261719 13.832031 L 0.289062 3.75 C 0.261719 1.851562 0.234375 0.636719 0.179688 0.03125 L 3.375 0.00390625 L 3.375 0.167969 C 3.238281 2.511719 3.238281 2.511719 3.238281 3.0625 L 3.238281 3.449219 L 3.183594 15.375 C 3.183594 16.148438 3.265625 17.882812 3.320312 18.324219 L 0.125 18.324219 Z M 0.125 18.160156 " clip-rule="nonzero"/></clipPath><clipPath id="5f56f2597a"><rect x="0" width="4" y="0" height="19"/></clipPath><clipPath id="a6eb1610ba"><path d="M 94.492188 2.113281 L 107.882812 2.113281 L 107.882812 20.359375 L 94.492188 20.359375 Z M 94.492188 2.113281 " clip-rule="nonzero"/></clipPath><clipPath id="582e99b0ee"><path d="M 103.089844 4.757812 L 100.941406 4.730469 C 100.800781 4.757812 99.894531 4.757812 98.160156 4.757812 L 94.878906 4.8125 L 94.851562 2.140625 L 107.882812 2.113281 L 99.09375 17.816406 L 107.476562 17.707031 L 107.503906 20.324219 L 94.492188 20.324219 Z M 103.089844 4.757812 " clip-rule="nonzero"/></clipPath><clipPath id="e7e003dbd2"><path d="M 0.492188 0.113281 L 13.882812 0.113281 L 13.882812 18.359375 L 0.492188 18.359375 Z M 0.492188 0.113281 " clip-rule="nonzero"/></clipPath><clipPath id="9629366d00"><path d="M 9.089844 2.757812 L 6.941406 2.730469 C 6.800781 2.757812 5.894531 2.757812 4.160156 2.757812 L 0.878906 2.8125 L 0.851562 0.140625 L 13.882812 0.113281 L 5.09375 15.816406 L 13.476562 15.707031 L 13.503906 18.324219 L 0.492188 18.324219 Z M 9.089844 2.757812 " clip-rule="nonzero"/></clipPath><clipPath id="b2ed9df7d7"><rect x="0" width="14" y="0" height="19"/></clipPath><clipPath id="7b6c027bed"><path d="M 111.703125 2.058594 L 123.535156 2.058594 L 123.535156 20.355469 L 111.703125 20.355469 Z M 111.703125 2.058594 " clip-rule="nonzero"/></clipPath><clipPath id="f91eb04f79"><path d="M 111.730469 20.324219 C 111.867188 18.753906 111.925781 18.121094 111.894531 17.074219 L 111.925781 5.972656 C 111.867188 3.847656 111.816406 2.886719 111.703125 2.140625 L 123.355469 2.058594 L 122.886719 4.8125 C 122.417969 4.730469 121.730469 4.703125 119.773438 4.675781 L 114.871094 4.703125 L 114.925781 9.296875 L 120.160156 9.296875 L 121.675781 9.242188 C 122.363281 9.1875 122.804688 9.1875 122.859375 9.160156 C 122.886719 9.160156 122.945312 9.160156 123.054688 9.132812 L 122.53125 12.078125 L 114.871094 12.023438 L 114.84375 17.625 L 118.453125 17.652344 C 120.546875 17.597656 122.613281 17.457031 123.496094 17.320312 L 122.945312 20.324219 Z M 111.730469 20.324219 " clip-rule="nonzero"/></clipPath><clipPath id="d3791eb812"><path d="M 0.703125 0.0585938 L 12.535156 0.0585938 L 12.535156 18.355469 L 0.703125 18.355469 Z M 0.703125 0.0585938 " clip-rule="nonzero"/></clipPath><clipPath id="bcdf704175"><path d="M 0.730469 18.324219 C 0.867188 16.753906 0.925781 16.121094 0.894531 15.074219 L 0.925781 3.972656 C 0.867188 1.847656 0.816406 0.886719 0.703125 0.140625 L 12.355469 0.0585938 L 11.886719 2.8125 C 11.417969 2.730469 10.730469 2.703125 8.773438 2.675781 L 3.871094 2.703125 L 3.925781 7.296875 L 9.160156 7.296875 L 10.675781 7.242188 C 11.363281 7.1875 11.804688 7.1875 11.859375 7.160156 C 11.886719 7.160156 11.945312 7.160156 12.054688 7.132812 L 11.53125 10.078125 L 3.871094 10.023438 L 3.84375 15.625 L 7.453125 15.652344 C 9.546875 15.597656 11.613281 15.457031 12.496094 15.320312 L 11.945312 18.324219 Z M 0.730469 18.324219 " clip-rule="nonzero"/></clipPath><clipPath id="9cd044da12"><rect x="0" width="13" y="0" height="19"/></clipPath><clipPath id="09fd5e748a"><path d="M 119 25 L 123.699219 25 L 123.699219 32 L 119 32 Z M 119 25 " clip-rule="nonzero"/></clipPath><clipPath id="8ca79d80ff"><rect x="0" width="124" y="0" height="34"/></clipPath></defs><g clip-path="url(#12f15082ee)"><path fill="#ffffff" d="M 0.988281 0 L 149.011719 0 L 149.011719 55.511719 L 0.988281 55.511719 Z M 0.988281 0 " fill-opacity="1" fill-rule="nonzero"/></g><g transform="matrix(1, 0, 0, 1, 13, 10)"><g clip-path="url(#8ca79d80ff)"><g clip-path="url(#cf486ab4db)"><g clip-path="url(#5d0128be43)"><g transform="matrix(1, 0, 0, 1, 0, 1)"><g clip-path="url(#614792e9f6)"><g clip-path="url(#fd91c33952)"><g clip-path="url(#2daf413688)"><path fill="#f15d63" d="M 0.09375 0.671875 L 14.945312 0.671875 L 14.945312 19.515625 L 0.09375 19.515625 Z M 0.09375 0.671875 " fill-opacity="1" fill-rule="nonzero"/></g></g></g></g></g></g><g clip-path="url(#e0a5cd1c8c)"><g clip-path="url(#263268efc4)"><g transform="matrix(1, 0, 0, 1, 19, 2)"><g clip-path="url(#e75e8ca01e)"><g clip-path="url(#8446dbb4a2)"><g clip-path="url(#21d56cc165)"><path fill="#f15d63" d="M 0.308594 0.00390625 L 3.558594 0.00390625 L 3.558594 18.320312 L 0.308594 18.320312 Z M 0.308594 0.00390625 " fill-opacity="1" fill-rule="nonzero"/></g></g></g></g></g></g><g clip-path="url(#9b3ec8389e)"><g clip-path="url(#f988a0aea7)"><g transform="matrix(1, 0, 0, 1, 27, 1)"><g clip-path="url(#4ae502f727)"><g clip-path="url(#a59af6278c)"><g clip-path="url(#1544f7e906)"><path fill="#f15d63" d="M 0.835938 0.0117188 L 15.765625 0.0117188 L 15.765625 19.644531 L 0.835938 19.644531 Z M 0.835938 0.0117188 " fill-opacity="1" fill-rule="nonzero"/></g></g></g></g></g></g><g clip-path="url(#371eca148d)"><g clip-path="url(#84c679743e)"><g transform="matrix(1, 0, 0, 1, 45, 0.000000000000003553)"><g clip-path="url(#ec7273d420)"><g clip-path="url(#61e056580d)"><g clip-path="url(#7d6705b0ae)"><path fill="#f15d63" d="M 0.910156 0.929688 L 17.328125 0.929688 L 17.328125 20.308594 L 0.910156 20.308594 Z M 0.910156 0.929688 " fill-opacity="1" fill-rule="nonzero"/></g></g></g></g></g></g><g clip-path="url(#54a900e24c)"><g clip-path="url(#5840a145a4)"><g transform="matrix(1, 0, 0, 1, 65, 1)"><g clip-path="url(#f7883156b9)"><g clip-path="url(#59d82ff9e6)"><g clip-path="url(#55e1ade69d)"><path fill="#f15d63" d="M 0.28125 0.121094 L 17.074219 0.121094 L 17.074219 19.324219 L 0.28125 19.324219 Z M 0.28125 0.121094 " fill-opacity="1" fill-rule="nonzero"/></g></g></g></g></g></g><g clip-path="url(#91eab5eacb)"><g clip-path="url(#7f0782bf55)"><g transform="matrix(1, 0, 0, 1, 87, 2)"><g clip-path="url(#5f56f2597a)"><g clip-path="url(#bf4b9c1422)"><g clip-path="url(#5ede04c0d0)"><path fill="#f15d63" d="M 0.125 0.00390625 L 3.375 0.00390625 L 3.375 18.324219 L 0.125 18.324219 Z M 0.125 0.00390625 " fill-opacity="1" fill-rule="nonzero"/></g></g></g></g></g></g><g clip-path="url(#a6eb1610ba)"><g clip-path="url(#582e99b0ee)"><g transform="matrix(1, 0, 0, 1, 94, 2)"><g clip-path="url(#b2ed9df7d7)"><g clip-path="url(#e7e003dbd2)"><g clip-path="url(#9629366d00)"><path fill="#f15d63" d="M 0.492188 0.113281 L 13.882812 0.113281 L 13.882812 18.320312 L 0.492188 18.320312 Z M 0.492188 0.113281 " fill-opacity="1" fill-rule="nonzero"/></g></g></g></g></g></g><g clip-path="url(#7b6c027bed)"><g clip-path="url(#f91eb04f79)"><g transform="matrix(1, 0, 0, 1, 111, 2)"><g clip-path="url(#9cd044da12)"><g clip-path="url(#d3791eb812)"><g clip-path="url(#bcdf704175)"><path fill="#f15d63" d="M 0.703125 0.0585938 L 12.496094 0.0585938 L 12.496094 18.316406 L 0.703125 18.316406 Z M 0.703125 0.0585938 " fill-opacity="1" fill-rule="nonzero"/></g></g></g></g></g></g><g fill="#3d3d3b" fill-opacity="1"><g transform="translate(66.388034, 31.390222)"><g><path d="M 3.203125 0.125 C 2.421875 0.125 1.75 -0.140625 1.1875 -0.671875 C 0.632812 -1.210938 0.359375 -1.941406 0.359375 -2.859375 C 0.359375 -3.472656 0.5 -4.007812 0.78125 -4.46875 C 1.0625 -4.9375 1.410156 -5.28125 1.828125 -5.5 C 2.253906 -5.726562 2.710938 -5.84375 3.203125 -5.84375 C 3.847656 -5.84375 4.390625 -5.675781 4.828125 -5.34375 C 5.273438 -5.019531 5.570312 -4.578125 5.71875 -4.015625 L 4.984375 -3.765625 C 4.878906 -4.191406 4.671875 -4.519531 4.359375 -4.75 C 4.054688 -4.988281 3.671875 -5.109375 3.203125 -5.109375 C 2.640625 -5.109375 2.160156 -4.910156 1.765625 -4.515625 C 1.367188 -4.117188 1.171875 -3.566406 1.171875 -2.859375 C 1.171875 -2.148438 1.367188 -1.597656 1.765625 -1.203125 C 2.160156 -0.804688 2.640625 -0.609375 3.203125 -0.609375 C 3.671875 -0.609375 4.0625 -0.734375 4.375 -0.984375 C 4.6875 -1.234375 4.898438 -1.5625 5.015625 -1.96875 L 5.71875 -1.71875 C 5.5625 -1.164062 5.257812 -0.71875 4.8125 -0.375 C 4.375 -0.0390625 3.835938 0.125 3.203125 0.125 Z M 3.203125 0.125 "/></g></g></g><g fill="#3d3d3b" fill-opacity="1"><g transform="translate(72.43058, 31.390222)"><g><path d="M 3.6875 0 L 2.375 -2.34375 L 1.53125 -2.34375 L 1.53125 0 L 0.71875 0 L 0.71875 -5.71875 L 2.875 -5.71875 C 3.40625 -5.71875 3.828125 -5.550781 4.140625 -5.21875 C 4.460938 -4.894531 4.625 -4.492188 4.625 -4.015625 C 4.625 -3.597656 4.5 -3.242188 4.25 -2.953125 C 4.007812 -2.660156 3.671875 -2.472656 3.234375 -2.390625 L 4.609375 0 Z M 1.53125 -3.046875 L 2.734375 -3.046875 C 3.054688 -3.046875 3.316406 -3.132812 3.515625 -3.3125 C 3.710938 -3.488281 3.8125 -3.722656 3.8125 -4.015625 C 3.8125 -4.316406 3.710938 -4.554688 3.515625 -4.734375 C 3.316406 -4.910156 3.054688 -5 2.734375 -5 L 1.53125 -5 Z M 1.53125 -3.046875 "/></g></g></g><g fill="#3d3d3b" fill-opacity="1"><g transform="translate(77.417696, 31.390222)"><g><path d="M 6.90625 0 L 6.125 0 L 6.125 -4.453125 L 4.171875 0 L 3.4375 0 L 1.5 -4.453125 L 1.5 0 L 0.71875 0 L 0.71875 -5.71875 L 1.796875 -5.71875 L 3.8125 -1.0625 L 5.84375 -5.71875 L 6.90625 -5.71875 Z M 6.90625 0 "/></g></g></g><g fill="#3d3d3b" fill-opacity="1"><g transform="translate(85.03936, 31.390222)"><g/></g></g><g fill="#3d3d3b" fill-opacity="1"><g transform="translate(87.053541, 31.390222)"><g><path d="M 1.390625 1.1875 L 0.71875 1.1875 L 0.71875 -6.328125 L 1.390625 -6.328125 Z M 1.390625 1.1875 "/></g></g></g><g fill="#3d3d3b" fill-opacity="1"><g transform="translate(89.164404, 31.390222)"><g/></g></g><g fill="#3d3d3b" fill-opacity="1"><g transform="translate(91.178585, 31.390222)"><g><path d="M 2.640625 -1.015625 L 4.390625 -5.71875 L 5.21875 -5.71875 L 3.015625 0 L 2.234375 0 L 0.078125 -5.71875 L 0.921875 -5.71875 Z M 2.640625 -1.015625 "/></g></g></g><g fill="#3d3d3b" fill-opacity="1"><g transform="translate(96.471856, 31.390222)"><g><path d="M 4.203125 0 L 0.71875 0 L 0.71875 -5.71875 L 4.203125 -5.71875 L 4.203125 -4.984375 L 1.515625 -4.984375 L 1.515625 -3.21875 L 3.953125 -3.21875 L 3.953125 -2.484375 L 1.515625 -2.484375 L 1.515625 -0.734375 L 4.203125 -0.734375 Z M 4.203125 0 "/></g></g></g><g fill="#3d3d3b" fill-opacity="1"><g transform="translate(101.152812, 31.390222)"><g><path d="M 5.421875 0 L 4.609375 0 L 1.515625 -4.65625 L 1.515625 0 L 0.71875 0 L 0.71875 -5.71875 L 1.78125 -5.71875 L 4.640625 -1.328125 L 4.640625 -5.71875 L 5.421875 -5.71875 Z M 5.421875 0 "/></g></g></g><g fill="#3d3d3b" fill-opacity="1"><g transform="translate(107.300096, 31.390222)"><g><path d="M 1.515625 -0.703125 L 2.6875 -0.703125 C 3.238281 -0.703125 3.695312 -0.882812 4.0625 -1.25 C 4.4375 -1.625 4.625 -2.15625 4.625 -2.84375 C 4.625 -3.539062 4.441406 -4.078125 4.078125 -4.453125 C 3.722656 -4.828125 3.265625 -5.015625 2.703125 -5.015625 L 1.515625 -5.015625 Z M 2.703125 0 L 0.71875 0 L 0.71875 -5.71875 L 2.71875 -5.71875 C 3.488281 -5.71875 4.132812 -5.460938 4.65625 -4.953125 C 5.175781 -4.441406 5.4375 -3.738281 5.4375 -2.84375 C 5.4375 -1.945312 5.171875 -1.25 4.640625 -0.75 C 4.117188 -0.25 3.472656 0 2.703125 0 Z M 2.703125 0 "/></g></g></g><g fill="#3d3d3b" fill-opacity="1"><g transform="translate(113.100942, 31.390222)"><g><path d="M 4.6875 0 L 4.0625 -1.59375 L 1.53125 -1.59375 L 0.921875 0 L 0.078125 0 L 2.359375 -5.71875 L 3.265625 -5.71875 L 5.53125 0 Z M 2.796875 -4.890625 L 1.8125 -2.328125 L 3.78125 -2.328125 Z M 2.796875 -4.890625 "/></g></g></g><g clip-path="url(#09fd5e748a)"><g fill="#3d3d3b" fill-opacity="1"><g transform="translate(118.71648, 31.390222)"><g><path d="M 4.375 -4.421875 L 3.65625 -4.171875 C 3.625 -4.421875 3.503906 -4.644531 3.296875 -4.84375 C 3.085938 -5.039062 2.804688 -5.140625 2.453125 -5.140625 C 2.128906 -5.140625 1.863281 -5.046875 1.65625 -4.859375 C 1.445312 -4.679688 1.34375 -4.457031 1.34375 -4.1875 C 1.34375 -3.976562 1.40625 -3.800781 1.53125 -3.65625 C 1.65625 -3.507812 1.835938 -3.410156 2.078125 -3.359375 L 2.9375 -3.171875 C 3.40625 -3.078125 3.769531 -2.882812 4.03125 -2.59375 C 4.289062 -2.3125 4.421875 -1.972656 4.421875 -1.578125 C 4.421875 -1.109375 4.238281 -0.707031 3.875 -0.375 C 3.507812 -0.0390625 3.03125 0.125 2.4375 0.125 C 1.800781 0.125 1.300781 -0.0390625 0.9375 -0.375 C 0.570312 -0.71875 0.363281 -1.117188 0.3125 -1.578125 L 1.0625 -1.828125 C 1.09375 -1.484375 1.226562 -1.191406 1.46875 -0.953125 C 1.707031 -0.710938 2.03125 -0.59375 2.4375 -0.59375 C 2.8125 -0.59375 3.097656 -0.675781 3.296875 -0.84375 C 3.503906 -1.019531 3.609375 -1.238281 3.609375 -1.5 C 3.609375 -1.71875 3.535156 -1.90625 3.390625 -2.0625 C 3.242188 -2.226562 3.03125 -2.335938 2.75 -2.390625 L 1.9375 -2.578125 C 1.519531 -2.660156 1.179688 -2.835938 0.921875 -3.109375 C 0.671875 -3.378906 0.546875 -3.722656 0.546875 -4.140625 C 0.546875 -4.585938 0.726562 -4.984375 1.09375 -5.328125 C 1.46875 -5.671875 1.914062 -5.84375 2.4375 -5.84375 C 3.019531 -5.84375 3.46875 -5.695312 3.78125 -5.40625 C 4.09375 -5.125 4.289062 -4.796875 4.375 -4.421875 Z M 4.375 -4.421875 "/></g></g></g></g></g></g></svg>