<svg xmlns="http://www.w3.org/2000/svg" xmlns:xlink="http://www.w3.org/1999/xlink" width="200" zoomAndPan="magnify" viewBox="0 0 150 56.249996" height="75" preserveAspectRatio="xMidYMid meet" version="1.0"><defs><g/><clipPath id="835a67691c"><path d="M 0.988281 0 L 149.011719 0 L 149.011719 55.511719 L 0.988281 55.511719 Z M 0.988281 0 " clip-rule="nonzero"/></clipPath><clipPath id="03a21b1003"><path d="M 0.199219 1.660156 L 15.066406 1.660156 L 15.066406 20.511719 L 0.199219 20.511719 Z M 0.199219 1.660156 " clip-rule="nonzero"/></clipPath><clipPath id="44976a0c52"><path d="M 0.503906 5.878906 C 0.503906 4.203125 0.421875 3.433594 0.199219 2.195312 C 1.382812 1.921875 4.554688 1.699219 5.820312 1.699219 C 11.210938 1.699219 15.03125 5.523438 15.03125 10.859375 C 15.03125 13.414062 14.097656 15.945312 12.472656 17.734375 C 10.824219 19.519531 6.929688 20.511719 3.792969 20.511719 C 2.773438 20.511719 1.878906 20.429688 0.367188 20.234375 C 0.558594 18.117188 0.585938 17.511719 0.585938 16.164062 Z M 3.527344 17.625 C 3.96875 17.707031 5.242188 17.734375 5.65625 17.734375 C 7.882812 17.734375 9.53125 16.964844 10.660156 15.367188 C 11.539062 14.160156 12.035156 12.507812 12.035156 10.832031 C 12.035156 6.980469 9.667969 4.589844 5.820312 4.589844 C 5.269531 4.589844 3.914062 4.644531 3.390625 4.753906 Z M 3.527344 17.625 " clip-rule="nonzero"/></clipPath><clipPath id="d8906d4d99"><path d="M 0.199219 0.660156 L 15.066406 0.660156 L 15.066406 19.511719 L 0.199219 19.511719 Z M 0.199219 0.660156 " clip-rule="nonzero"/></clipPath><clipPath id="2bb60a3c06"><path d="M 0.503906 4.878906 C 0.503906 3.203125 0.421875 2.433594 0.199219 1.195312 C 1.382812 0.921875 4.554688 0.699219 5.820312 0.699219 C 11.210938 0.699219 15.03125 4.523438 15.03125 9.859375 C 15.03125 12.414062 14.097656 14.945312 12.472656 16.734375 C 10.824219 18.519531 6.929688 19.511719 3.792969 19.511719 C 2.773438 19.511719 1.878906 19.429688 0.367188 19.234375 C 0.558594 17.117188 0.585938 16.511719 0.585938 15.164062 Z M 3.527344 16.625 C 3.96875 16.707031 5.242188 16.734375 5.65625 16.734375 C 7.882812 16.734375 9.53125 15.964844 10.660156 14.367188 C 11.539062 13.160156 12.035156 11.507812 12.035156 9.832031 C 12.035156 5.980469 9.667969 3.589844 5.820312 3.589844 C 5.269531 3.589844 3.914062 3.644531 3.390625 3.753906 Z M 3.527344 16.625 " clip-rule="nonzero"/></clipPath><clipPath id="2ac7b5ffd3"><rect x="0" width="16" y="0" height="20"/></clipPath><clipPath id="9616b576bd"><path d="M 19.378906 2.03125 L 22.636719 2.03125 L 22.636719 20.324219 L 19.378906 20.324219 Z M 19.378906 2.03125 " clip-rule="nonzero"/></clipPath><clipPath id="8f3744a59f"><path d="M 19.378906 20.152344 L 19.488281 17.816406 L 19.519531 15.835938 L 19.546875 5.769531 C 19.519531 3.875 19.488281 2.664062 19.433594 2.058594 L 22.625 2.03125 L 22.625 2.195312 C 22.488281 4.53125 22.488281 4.53125 22.488281 5.082031 L 22.488281 5.46875 L 22.433594 17.375 C 22.433594 18.144531 22.515625 19.878906 22.570312 20.320312 L 19.378906 20.320312 Z M 19.378906 20.152344 " clip-rule="nonzero"/></clipPath><clipPath id="c015fc47b2"><path d="M 0.378906 0.03125 L 3.636719 0.03125 L 3.636719 18.324219 L 0.378906 18.324219 Z M 0.378906 0.03125 " clip-rule="nonzero"/></clipPath><clipPath id="fb94254970"><path d="M 0.378906 18.152344 L 0.488281 15.816406 L 0.519531 13.835938 L 0.546875 3.769531 C 0.519531 1.875 0.488281 0.664062 0.433594 0.0585938 L 3.625 0.03125 L 3.625 0.195312 C 3.488281 2.53125 3.488281 2.53125 3.488281 3.082031 L 3.488281 3.46875 L 3.433594 15.375 C 3.433594 16.144531 3.515625 17.878906 3.570312 18.320312 L 0.378906 18.320312 Z M 0.378906 18.152344 " clip-rule="nonzero"/></clipPath><clipPath id="1f7f3944df"><rect x="0" width="4" y="0" height="19"/></clipPath><clipPath id="795522a220"><path d="M 27.894531 1.042969 L 42.800781 1.042969 L 42.800781 20.636719 L 27.894531 20.636719 Z M 27.894531 1.042969 " clip-rule="nonzero"/></clipPath><clipPath id="f94018d9d1"><path d="M 27.894531 20.316406 C 28.03125 19 28.199219 12.730469 28.199219 8.90625 C 28.199219 7.0625 28.171875 4.917969 28.089844 1.042969 L 39.914062 13.527344 L 39.832031 2.113281 L 42.800781 2.140625 C 42.773438 3.351562 42.773438 4.285156 42.746094 4.835938 C 42.691406 6.761719 42.636719 8.027344 42.664062 8.382812 C 42.691406 8.769531 42.691406 8.851562 42.691406 8.933594 L 42.609375 20.621094 L 30.808594 8.109375 L 30.921875 20.316406 Z M 27.894531 20.316406 " clip-rule="nonzero"/></clipPath><clipPath id="942319a8b7"><path d="M 0.894531 0.0429688 L 15.800781 0.0429688 L 15.800781 19.636719 L 0.894531 19.636719 Z M 0.894531 0.0429688 " clip-rule="nonzero"/></clipPath><clipPath id="0bb4ac67e8"><path d="M 0.894531 19.316406 C 1.03125 18 1.199219 11.730469 1.199219 7.90625 C 1.199219 6.0625 1.171875 3.917969 1.089844 0.0429688 L 12.914062 12.527344 L 12.832031 1.113281 L 15.800781 1.140625 C 15.773438 2.351562 15.773438 3.285156 15.746094 3.835938 C 15.691406 5.761719 15.636719 7.027344 15.664062 7.382812 C 15.691406 7.769531 15.691406 7.851562 15.691406 7.933594 L 15.609375 19.621094 L 3.808594 7.109375 L 3.921875 19.316406 Z M 0.894531 19.316406 " clip-rule="nonzero"/></clipPath><clipPath id="72ba2957e4"><rect x="0" width="16" y="0" height="20"/></clipPath><clipPath id="598bf45fbd"><path d="M 45.9375 0.957031 L 62.328125 0.957031 L 62.328125 20.34375 L 45.9375 20.34375 Z M 45.9375 0.957031 " clip-rule="nonzero"/></clipPath><clipPath id="861d2e0734"><path d="M 56.03125 12.976562 L 53.996094 7.832031 L 52.042969 12.976562 L 50.96875 15.480469 L 49.074219 20.320312 L 45.9375 20.320312 L 54.078125 0.957031 L 62.328125 20.320312 L 59.191406 20.320312 L 57.15625 15.480469 Z M 56.03125 12.976562 " clip-rule="nonzero"/></clipPath><clipPath id="e04bde249f"><path d="M 0.9375 0.957031 L 17.328125 0.957031 L 17.328125 20.34375 L 0.9375 20.34375 Z M 0.9375 0.957031 " clip-rule="nonzero"/></clipPath><clipPath id="292202d065"><path d="M 11.03125 12.976562 L 8.996094 7.832031 L 7.042969 12.976562 L 5.96875 15.480469 L 4.074219 20.320312 L 0.9375 20.320312 L 9.078125 0.957031 L 17.328125 20.320312 L 14.191406 20.320312 L 12.15625 15.480469 Z M 11.03125 12.976562 " clip-rule="nonzero"/></clipPath><clipPath id="1c41c956b0"><rect x="0" width="18" y="0" height="21"/></clipPath><clipPath id="a973773995"><path d="M 65.277344 1.148438 L 82.078125 1.148438 L 82.078125 20.359375 L 65.277344 20.359375 Z M 65.277344 1.148438 " clip-rule="nonzero"/></clipPath><clipPath id="2d4ac72b3c"><path d="M 66.046875 1.425781 L 73.554688 11.601562 L 81.117188 1.148438 C 81.089844 1.535156 81.089844 1.785156 81.089844 1.8125 C 81.089844 2.691406 81.171875 4.039062 82.023438 20.125 L 82.050781 20.320312 L 79.054688 20.320312 L 78.667969 8.933594 L 73.445312 16 L 68.410156 9.207031 L 68.082031 20.320312 L 65.277344 20.320312 Z M 66.046875 1.425781 " clip-rule="nonzero"/></clipPath><clipPath id="a3a7cc5c43"><path d="M 0.277344 0.148438 L 17.078125 0.148438 L 17.078125 19.359375 L 0.277344 19.359375 Z M 0.277344 0.148438 " clip-rule="nonzero"/></clipPath><clipPath id="96603cc623"><path d="M 1.046875 0.425781 L 8.554688 10.601562 L 16.117188 0.148438 C 16.089844 0.535156 16.089844 0.785156 16.089844 0.8125 C 16.089844 1.691406 16.171875 3.039062 17.023438 19.125 L 17.050781 19.320312 L 14.054688 19.320312 L 13.667969 7.933594 L 8.445312 15 L 3.410156 8.207031 L 3.082031 19.320312 L 0.277344 19.320312 Z M 1.046875 0.425781 " clip-rule="nonzero"/></clipPath><clipPath id="e38971b0bd"><rect x="0" width="18" y="0" height="20"/></clipPath><clipPath id="ceaec13325"><path d="M 87.082031 2.03125 L 90.324219 2.03125 L 90.324219 20.320312 L 87.082031 20.320312 Z M 87.082031 2.03125 " clip-rule="nonzero"/></clipPath><clipPath id="b6dcbb4103"><path d="M 87.082031 20.152344 L 87.191406 17.816406 L 87.21875 15.835938 L 87.246094 5.769531 C 87.21875 3.875 87.191406 2.664062 87.136719 2.058594 L 90.324219 2.03125 L 90.324219 2.195312 C 90.1875 4.53125 90.1875 4.53125 90.1875 5.082031 L 90.1875 5.46875 L 90.132812 17.375 C 90.132812 18.144531 90.214844 19.878906 90.273438 20.320312 L 87.082031 20.320312 Z M 87.082031 20.152344 " clip-rule="nonzero"/></clipPath><clipPath id="ee3cdd11d2"><path d="M 0.0820312 0.03125 L 3.324219 0.03125 L 3.324219 18.320312 L 0.0820312 18.320312 Z M 0.0820312 0.03125 " clip-rule="nonzero"/></clipPath><clipPath id="b12a3eb5ca"><path d="M 0.0820312 18.152344 L 0.191406 15.816406 L 0.21875 13.835938 L 0.246094 3.769531 C 0.21875 1.875 0.191406 0.664062 0.136719 0.0585938 L 3.324219 0.03125 L 3.324219 0.195312 C 3.1875 2.53125 3.1875 2.53125 3.1875 3.082031 L 3.1875 3.46875 L 3.132812 15.375 C 3.132812 16.144531 3.214844 17.878906 3.273438 18.320312 L 0.0820312 18.320312 Z M 0.0820312 18.152344 " clip-rule="nonzero"/></clipPath><clipPath id="f57029c4ab"><rect x="0" width="4" y="0" height="19"/></clipPath><clipPath id="77ce6ea558"><path d="M 94.4375 2.140625 L 107.800781 2.140625 L 107.800781 20.355469 L 94.4375 20.355469 Z M 94.4375 2.140625 " clip-rule="nonzero"/></clipPath><clipPath id="0ae5e011a6"><path d="M 103.019531 4.78125 L 100.871094 4.753906 C 100.734375 4.78125 99.828125 4.78125 98.09375 4.78125 L 94.824219 4.835938 L 94.796875 2.167969 L 107.800781 2.140625 L 99.03125 17.816406 L 107.394531 17.707031 L 107.421875 20.320312 L 94.4375 20.320312 Z M 103.019531 4.78125 " clip-rule="nonzero"/></clipPath><clipPath id="792dfda5e5"><path d="M 0.4375 0.140625 L 13.800781 0.140625 L 13.800781 18.355469 L 0.4375 18.355469 Z M 0.4375 0.140625 " clip-rule="nonzero"/></clipPath><clipPath id="541af0348a"><path d="M 9.019531 2.78125 L 6.871094 2.753906 C 6.734375 2.78125 5.828125 2.78125 4.09375 2.78125 L 0.824219 2.835938 L 0.796875 0.167969 L 13.800781 0.140625 L 5.03125 15.816406 L 13.394531 15.707031 L 13.421875 18.320312 L 0.4375 18.320312 Z M 9.019531 2.78125 " clip-rule="nonzero"/></clipPath><clipPath id="9a4406135c"><rect x="0" width="14" y="0" height="19"/></clipPath><clipPath id="13b2f3bf35"><path d="M 111.617188 2.085938 L 123.425781 2.085938 L 123.425781 20.351562 L 111.617188 20.351562 Z M 111.617188 2.085938 " clip-rule="nonzero"/></clipPath><clipPath id="5dd0e33a1f"><path d="M 111.644531 20.316406 C 111.78125 18.75 111.835938 18.117188 111.808594 17.074219 L 111.835938 5.992188 C 111.78125 3.871094 111.726562 2.910156 111.617188 2.167969 L 123.25 2.085938 L 122.78125 4.835938 C 122.316406 4.753906 121.628906 4.726562 119.675781 4.699219 L 114.777344 4.726562 L 114.835938 9.3125 L 120.058594 9.3125 L 121.570312 9.257812 C 122.257812 9.203125 122.699219 9.203125 122.753906 9.171875 C 122.78125 9.171875 122.835938 9.171875 122.949219 9.144531 L 122.425781 12.089844 L 114.78125 12.03125 L 114.753906 17.625 L 118.355469 17.652344 C 120.445312 17.597656 122.507812 17.457031 123.386719 17.320312 L 122.835938 20.316406 Z M 111.644531 20.316406 " clip-rule="nonzero"/></clipPath><clipPath id="55d2a3d7ec"><path d="M 0.617188 0.0859375 L 12.425781 0.0859375 L 12.425781 18.351562 L 0.617188 18.351562 Z M 0.617188 0.0859375 " clip-rule="nonzero"/></clipPath><clipPath id="2af6952a6a"><path d="M 0.644531 18.316406 C 0.78125 16.75 0.835938 16.117188 0.808594 15.074219 L 0.835938 3.992188 C 0.78125 1.871094 0.726562 0.910156 0.617188 0.167969 L 12.25 0.0859375 L 11.78125 2.835938 C 11.316406 2.753906 10.628906 2.726562 8.675781 2.699219 L 3.777344 2.726562 L 3.835938 7.3125 L 9.058594 7.3125 L 10.570312 7.257812 C 11.257812 7.203125 11.699219 7.203125 11.753906 7.171875 C 11.78125 7.171875 11.835938 7.171875 11.949219 7.144531 L 11.425781 10.089844 L 3.78125 10.03125 L 3.753906 15.625 L 7.355469 15.652344 C 9.445312 15.597656 11.507812 15.457031 12.386719 15.320312 L 11.835938 18.316406 Z M 0.644531 18.316406 " clip-rule="nonzero"/></clipPath><clipPath id="51bccbbdec"><rect x="0" width="13" y="0" height="19"/></clipPath><clipPath id="6b0baf72d7"><path d="M 104 25 L 110 25 L 110 33.34375 L 104 33.34375 Z M 104 25 " clip-rule="nonzero"/></clipPath><clipPath id="06e82c0f2d"><rect x="0" width="124" y="0" height="34"/></clipPath></defs><g transform="matrix(1, 0, 0, 1, 13, 10)"><g clip-path="url(#06e82c0f2d)"><g clip-path="url(#03a21b1003)"><g clip-path="url(#44976a0c52)"><g transform="matrix(1, 0, 0, 1, 0, 1)"><g clip-path="url(#2ac7b5ffd3)"><g clip-path="url(#d8906d4d99)"><g clip-path="url(#2bb60a3c06)"><path fill="#f15d63" d="M 0.199219 0.699219 L 15.027344 0.699219 L 15.027344 19.511719 L 0.199219 19.511719 Z M 0.199219 0.699219 " fill-opacity="1" fill-rule="nonzero"/></g></g></g></g></g></g><g clip-path="url(#9616b576bd)"><g clip-path="url(#8f3744a59f)"><g transform="matrix(1, 0, 0, 1, 19, 2)"><g clip-path="url(#1f7f3944df)"><g clip-path="url(#c015fc47b2)"><g clip-path="url(#fb94254970)"><path fill="#f15d63" d="M 0.378906 0.03125 L 3.625 0.03125 L 3.625 18.3125 L 0.378906 18.3125 Z M 0.378906 0.03125 " fill-opacity="1" fill-rule="nonzero"/></g></g></g></g></g></g><g clip-path="url(#795522a220)"><g clip-path="url(#f94018d9d1)"><g transform="matrix(1, 0, 0, 1, 27, 1)"><g clip-path="url(#72ba2957e4)"><g clip-path="url(#942319a8b7)"><g clip-path="url(#0bb4ac67e8)"><path fill="#f15d63" d="M 0.894531 0.0429688 L 15.800781 0.0429688 L 15.800781 19.636719 L 0.894531 19.636719 Z M 0.894531 0.0429688 " fill-opacity="1" fill-rule="nonzero"/></g></g></g></g></g></g><g clip-path="url(#598bf45fbd)"><g clip-path="url(#861d2e0734)"><g transform="matrix(1, 0, 0, 1, 45, 0.000000000000003553)"><g clip-path="url(#1c41c956b0)"><g clip-path="url(#e04bde249f)"><g clip-path="url(#292202d065)"><path fill="#f15d63" d="M 0.9375 0.957031 L 17.328125 0.957031 L 17.328125 20.304688 L 0.9375 20.304688 Z M 0.9375 0.957031 " fill-opacity="1" fill-rule="nonzero"/></g></g></g></g></g></g><g clip-path="url(#a973773995)"><g clip-path="url(#2d4ac72b3c)"><g transform="matrix(1, 0, 0, 1, 65, 1)"><g clip-path="url(#e38971b0bd)"><g clip-path="url(#a3a7cc5c43)"><g clip-path="url(#96603cc623)"><path fill="#f15d63" d="M 0.277344 0.148438 L 17.039062 0.148438 L 17.039062 19.320312 L 0.277344 19.320312 Z M 0.277344 0.148438 " fill-opacity="1" fill-rule="nonzero"/></g></g></g></g></g></g><g clip-path="url(#ceaec13325)"><g clip-path="url(#b6dcbb4103)"><g transform="matrix(1, 0, 0, 1, 87, 2)"><g clip-path="url(#f57029c4ab)"><g clip-path="url(#ee3cdd11d2)"><g clip-path="url(#b12a3eb5ca)"><path fill="#f15d63" d="M 0.0820312 0.03125 L 3.324219 0.03125 L 3.324219 18.320312 L 0.0820312 18.320312 Z M 0.0820312 0.03125 " fill-opacity="1" fill-rule="nonzero"/></g></g></g></g></g></g><g clip-path="url(#77ce6ea558)"><g clip-path="url(#0ae5e011a6)"><g transform="matrix(1, 0, 0, 1, 94, 2)"><g clip-path="url(#9a4406135c)"><g clip-path="url(#792dfda5e5)"><g clip-path="url(#541af0348a)"><path fill="#f15d63" d="M 0.4375 0.140625 L 13.800781 0.140625 L 13.800781 18.316406 L 0.4375 18.316406 Z M 0.4375 0.140625 " fill-opacity="1" fill-rule="nonzero"/></g></g></g></g></g></g><g clip-path="url(#13b2f3bf35)"><g clip-path="url(#5dd0e33a1f)"><g transform="matrix(1, 0, 0, 1, 111, 2)"><g clip-path="url(#51bccbbdec)"><g clip-path="url(#55d2a3d7ec)"><g clip-path="url(#2af6952a6a)"><path fill="#f15d63" d="M 0.617188 0.0859375 L 12.386719 0.0859375 L 12.386719 18.3125 L 0.617188 18.3125 Z M 0.617188 0.0859375 " fill-opacity="1" fill-rule="nonzero"/></g></g></g></g></g></g><g fill="#3d3d3b" fill-opacity="1"><g transform="translate(43.965384, 31.365868)"><g><path d="M 3.1875 0.125 C 2.414062 0.125 1.75 -0.140625 1.1875 -0.671875 C 0.632812 -1.210938 0.359375 -1.941406 0.359375 -2.859375 C 0.359375 -3.472656 0.5 -4.007812 0.78125 -4.46875 C 1.0625 -4.925781 1.410156 -5.265625 1.828125 -5.484375 C 2.253906 -5.710938 2.707031 -5.828125 3.1875 -5.828125 C 3.832031 -5.828125 4.375 -5.664062 4.8125 -5.34375 C 5.257812 -5.019531 5.554688 -4.578125 5.703125 -4.015625 L 4.96875 -3.765625 C 4.863281 -4.191406 4.65625 -4.519531 4.34375 -4.75 C 4.039062 -4.988281 3.65625 -5.109375 3.1875 -5.109375 C 2.632812 -5.109375 2.160156 -4.910156 1.765625 -4.515625 C 1.367188 -4.117188 1.171875 -3.566406 1.171875 -2.859375 C 1.171875 -2.148438 1.367188 -1.597656 1.765625 -1.203125 C 2.160156 -0.804688 2.632812 -0.609375 3.1875 -0.609375 C 3.65625 -0.609375 4.046875 -0.734375 4.359375 -0.984375 C 4.671875 -1.234375 4.890625 -1.5625 5.015625 -1.96875 L 5.71875 -1.71875 C 5.5625 -1.164062 5.257812 -0.71875 4.8125 -0.375 C 4.375 -0.0390625 3.832031 0.125 3.1875 0.125 Z M 3.1875 0.125 "/></g></g></g><g fill="#3d3d3b" fill-opacity="1"><g transform="translate(49.997461, 31.365868)"><g><path d="M 3.671875 0 L 2.375 -2.328125 L 1.515625 -2.328125 L 1.515625 0 L 0.71875 0 L 0.71875 -5.703125 L 2.875 -5.703125 C 3.394531 -5.703125 3.816406 -5.539062 4.140625 -5.21875 C 4.460938 -4.894531 4.625 -4.488281 4.625 -4 C 4.625 -3.59375 4.5 -3.242188 4.25 -2.953125 C 4 -2.660156 3.660156 -2.472656 3.234375 -2.390625 L 4.59375 0 Z M 1.515625 -3.046875 L 2.734375 -3.046875 C 3.046875 -3.046875 3.300781 -3.128906 3.5 -3.296875 C 3.707031 -3.472656 3.8125 -3.707031 3.8125 -4 C 3.8125 -4.300781 3.707031 -4.539062 3.5 -4.71875 C 3.300781 -4.90625 3.046875 -5 2.734375 -5 L 1.515625 -5 Z M 1.515625 -3.046875 "/></g></g></g><g fill="#3d3d3b" fill-opacity="1"><g transform="translate(54.975936, 31.365868)"><g><path d="M 6.890625 0 L 6.109375 0 L 6.109375 -4.4375 L 4.15625 0 L 3.4375 0 L 1.5 -4.4375 L 1.5 0 L 0.71875 0 L 0.71875 -5.703125 L 1.796875 -5.703125 L 3.8125 -1.0625 L 5.828125 -5.703125 L 6.890625 -5.703125 Z M 6.890625 0 "/></g></g></g><g fill="#3d3d3b" fill-opacity="1"><g transform="translate(62.584395, 31.365868)"><g/></g></g><g fill="#3d3d3b" fill-opacity="1"><g transform="translate(64.595086, 31.365868)"><g><path d="M 1.390625 1.1875 L 0.71875 1.1875 L 0.71875 -6.3125 L 1.390625 -6.3125 Z M 1.390625 1.1875 "/></g></g></g><g fill="#3d3d3b" fill-opacity="1"><g transform="translate(66.702292, 31.365868)"><g/></g></g><g fill="#3d3d3b" fill-opacity="1"><g transform="translate(68.712983, 31.365868)"><g><path d="M 4.671875 0 L 4.0625 -1.59375 L 1.53125 -1.59375 L 0.921875 0 L 0.078125 0 L 2.34375 -5.703125 L 3.265625 -5.703125 L 5.53125 0 Z M 2.78125 -4.890625 L 1.8125 -2.328125 L 3.78125 -2.328125 Z M 2.78125 -4.890625 "/></g></g></g><g fill="#3d3d3b" fill-opacity="1"><g transform="translate(74.318793, 31.365868)"><g><path d="M 4.171875 -0.421875 C 3.785156 -0.0546875 3.289062 0.125 2.6875 0.125 C 2.09375 0.125 1.601562 -0.0546875 1.21875 -0.421875 C 0.832031 -0.785156 0.640625 -1.296875 0.640625 -1.953125 L 0.640625 -5.703125 L 1.421875 -5.703125 L 1.421875 -1.96875 C 1.421875 -1.53125 1.53125 -1.191406 1.75 -0.953125 C 1.976562 -0.722656 2.289062 -0.609375 2.6875 -0.609375 C 3.09375 -0.609375 3.40625 -0.722656 3.625 -0.953125 C 3.84375 -1.191406 3.953125 -1.53125 3.953125 -1.96875 L 3.953125 -5.703125 L 4.75 -5.703125 L 4.75 -1.953125 C 4.75 -1.296875 4.554688 -0.785156 4.171875 -0.421875 Z M 4.171875 -0.421875 "/></g></g></g><g fill="#3d3d3b" fill-opacity="1"><g transform="translate(79.707447, 31.365868)"><g><path d="M 4.6875 -4.96875 L 2.78125 -4.96875 L 2.78125 0 L 1.984375 0 L 1.984375 -4.96875 L 0.078125 -4.96875 L 0.078125 -5.703125 L 4.6875 -5.703125 Z M 4.6875 -4.96875 "/></g></g></g><g fill="#3d3d3b" fill-opacity="1"><g transform="translate(84.468768, 31.365868)"><g><path d="M 1.765625 -4.515625 C 1.367188 -4.117188 1.171875 -3.566406 1.171875 -2.859375 C 1.171875 -2.148438 1.367188 -1.597656 1.765625 -1.203125 C 2.171875 -0.804688 2.65625 -0.609375 3.21875 -0.609375 C 3.789062 -0.609375 4.273438 -0.804688 4.671875 -1.203125 C 5.078125 -1.597656 5.28125 -2.148438 5.28125 -2.859375 C 5.28125 -3.566406 5.078125 -4.117188 4.671875 -4.515625 C 4.273438 -4.910156 3.789062 -5.109375 3.21875 -5.109375 C 2.65625 -5.109375 2.171875 -4.910156 1.765625 -4.515625 Z M 0.359375 -2.859375 C 0.359375 -3.316406 0.441406 -3.734375 0.609375 -4.109375 C 0.773438 -4.492188 0.992188 -4.804688 1.265625 -5.046875 C 1.535156 -5.296875 1.835938 -5.488281 2.171875 -5.625 C 2.503906 -5.757812 2.851562 -5.828125 3.21875 -5.828125 C 3.59375 -5.828125 3.945312 -5.757812 4.28125 -5.625 C 4.613281 -5.488281 4.914062 -5.296875 5.1875 -5.046875 C 5.457031 -4.804688 5.675781 -4.492188 5.84375 -4.109375 C 6.007812 -3.734375 6.09375 -3.316406 6.09375 -2.859375 C 6.09375 -2.242188 5.953125 -1.707031 5.671875 -1.25 C 5.390625 -0.789062 5.03125 -0.445312 4.59375 -0.21875 C 4.164062 0.0078125 3.707031 0.125 3.21875 0.125 C 2.738281 0.125 2.28125 0.0078125 1.84375 -0.21875 C 1.414062 -0.445312 1.0625 -0.789062 0.78125 -1.25 C 0.5 -1.707031 0.359375 -2.242188 0.359375 -2.859375 Z M 0.359375 -2.859375 "/></g></g></g><g fill="#3d3d3b" fill-opacity="1"><g transform="translate(90.919068, 31.365868)"><g><path d="M 6.890625 0 L 6.109375 0 L 6.109375 -4.4375 L 4.15625 0 L 3.4375 0 L 1.5 -4.4375 L 1.5 0 L 0.71875 0 L 0.71875 -5.703125 L 1.796875 -5.703125 L 3.8125 -1.0625 L 5.828125 -5.703125 L 6.890625 -5.703125 Z M 6.890625 0 "/></g></g></g><g fill="#3d3d3b" fill-opacity="1"><g transform="translate(98.527525, 31.365868)"><g><path d="M 4.671875 0 L 4.0625 -1.59375 L 1.53125 -1.59375 L 0.921875 0 L 0.078125 0 L 2.34375 -5.703125 L 3.265625 -5.703125 L 5.53125 0 Z M 2.78125 -4.890625 L 1.8125 -2.328125 L 3.78125 -2.328125 Z M 2.78125 -4.890625 "/></g></g></g><g clip-path="url(#6b0baf72d7)"><g fill="#3d3d3b" fill-opacity="1"><g transform="translate(104.133337, 31.365868)"><g><path d="M 2.984375 0.8125 L 2.71875 0.5 L 2.96875 0.109375 C 2.226562 0.0546875 1.609375 -0.234375 1.109375 -0.765625 C 0.609375 -1.296875 0.359375 -1.992188 0.359375 -2.859375 C 0.359375 -3.472656 0.5 -4.007812 0.78125 -4.46875 C 1.0625 -4.925781 1.410156 -5.265625 1.828125 -5.484375 C 2.253906 -5.710938 2.707031 -5.828125 3.1875 -5.828125 C 3.832031 -5.828125 4.375 -5.664062 4.8125 -5.34375 C 5.257812 -5.019531 5.554688 -4.578125 5.703125 -4.015625 L 4.96875 -3.765625 C 4.863281 -4.191406 4.65625 -4.519531 4.34375 -4.75 C 4.039062 -4.988281 3.65625 -5.109375 3.1875 -5.109375 C 2.632812 -5.109375 2.160156 -4.910156 1.765625 -4.515625 C 1.367188 -4.117188 1.171875 -3.566406 1.171875 -2.859375 C 1.171875 -2.148438 1.367188 -1.597656 1.765625 -1.203125 C 2.160156 -0.804688 2.632812 -0.609375 3.1875 -0.609375 C 3.644531 -0.609375 4.03125 -0.734375 4.34375 -0.984375 C 4.664062 -1.234375 4.890625 -1.5625 5.015625 -1.96875 L 5.71875 -1.71875 C 5.570312 -1.21875 5.304688 -0.800781 4.921875 -0.46875 C 4.535156 -0.144531 4.070312 0.046875 3.53125 0.109375 L 3.359375 0.375 C 3.585938 0.375 3.773438 0.429688 3.921875 0.546875 C 4.066406 0.671875 4.140625 0.832031 4.140625 1.03125 C 4.140625 1.226562 4.054688 1.394531 3.890625 1.53125 C 3.734375 1.675781 3.503906 1.75 3.203125 1.75 C 2.816406 1.75 2.519531 1.628906 2.3125 1.390625 L 2.609375 1.015625 C 2.773438 1.203125 2.96875 1.296875 3.1875 1.296875 C 3.300781 1.296875 3.394531 1.269531 3.46875 1.21875 C 3.539062 1.175781 3.578125 1.113281 3.578125 1.03125 C 3.578125 0.957031 3.539062 0.894531 3.46875 0.84375 C 3.40625 0.789062 3.320312 0.765625 3.21875 0.765625 C 3.132812 0.765625 3.054688 0.78125 2.984375 0.8125 Z M 2.984375 0.8125 "/></g></g></g></g><g fill="#3d3d3b" fill-opacity="1"><g transform="translate(110.165411, 31.365868)"><g><path d="M 4.671875 0 L 4.0625 -1.59375 L 1.53125 -1.59375 L 0.921875 0 L 0.078125 0 L 2.34375 -5.703125 L 3.265625 -5.703125 L 5.53125 0 Z M 2.78125 -4.890625 L 1.8125 -2.328125 L 3.78125 -2.328125 Z M 4.078125 -7.09375 L 4.078125 -6.953125 C 4.078125 -6.671875 4.003906 -6.453125 3.859375 -6.296875 C 3.710938 -6.140625 3.523438 -6.0625 3.296875 -6.0625 C 3.097656 -6.0625 2.910156 -6.125 2.734375 -6.25 L 2.609375 -6.328125 C 2.484375 -6.410156 2.382812 -6.453125 2.3125 -6.453125 C 2.125 -6.453125 2.03125 -6.332031 2.03125 -6.09375 L 1.484375 -6.09375 L 1.484375 -6.21875 C 1.484375 -6.507812 1.554688 -6.726562 1.703125 -6.875 C 1.847656 -7.03125 2.035156 -7.109375 2.265625 -7.109375 C 2.453125 -7.109375 2.644531 -7.046875 2.84375 -6.921875 L 2.96875 -6.859375 C 3.101562 -6.785156 3.207031 -6.75 3.28125 -6.75 C 3.445312 -6.75 3.53125 -6.84375 3.53125 -7.03125 L 3.53125 -7.09375 Z M 4.078125 -7.09375 "/></g></g></g><g fill="#3d3d3b" fill-opacity="1"><g transform="translate(115.771224, 31.365868)"><g><path d="M 1.765625 -4.515625 C 1.367188 -4.117188 1.171875 -3.566406 1.171875 -2.859375 C 1.171875 -2.148438 1.367188 -1.597656 1.765625 -1.203125 C 2.171875 -0.804688 2.65625 -0.609375 3.21875 -0.609375 C 3.789062 -0.609375 4.273438 -0.804688 4.671875 -1.203125 C 5.078125 -1.597656 5.28125 -2.148438 5.28125 -2.859375 C 5.28125 -3.566406 5.078125 -4.117188 4.671875 -4.515625 C 4.273438 -4.910156 3.789062 -5.109375 3.21875 -5.109375 C 2.65625 -5.109375 2.171875 -4.910156 1.765625 -4.515625 Z M 0.359375 -2.859375 C 0.359375 -3.316406 0.441406 -3.734375 0.609375 -4.109375 C 0.773438 -4.492188 0.992188 -4.804688 1.265625 -5.046875 C 1.535156 -5.296875 1.835938 -5.488281 2.171875 -5.625 C 2.503906 -5.757812 2.851562 -5.828125 3.21875 -5.828125 C 3.59375 -5.828125 3.945312 -5.757812 4.28125 -5.625 C 4.613281 -5.488281 4.914062 -5.296875 5.1875 -5.046875 C 5.457031 -4.804688 5.675781 -4.492188 5.84375 -4.109375 C 6.007812 -3.734375 6.09375 -3.316406 6.09375 -2.859375 C 6.09375 -2.242188 5.953125 -1.707031 5.671875 -1.25 C 5.390625 -0.789062 5.03125 -0.445312 4.59375 -0.21875 C 4.164062 0.0078125 3.707031 0.125 3.21875 0.125 C 2.738281 0.125 2.28125 0.0078125 1.84375 -0.21875 C 1.414062 -0.445312 1.0625 -0.789062 0.78125 -1.25 C 0.5 -1.707031 0.359375 -2.242188 0.359375 -2.859375 Z M 0.359375 -2.859375 "/></g></g></g></g></g></svg>