<svg width="30" height="19" viewBox="0 0 30 19" fill="none" xmlns="http://www.w3.org/2000/svg">
<g clip-path="url(#clip0_215_8277)">
<mask id="mask0_215_8277" style="mask-type:luminance" maskUnits="userSpaceOnUse" x="-17" y="0" width="64" height="33">
<path d="M47 0H-17V33H47V0Z" fill="white"/>
</mask>
<g mask="url(#mask0_215_8277)">
<mask id="mask1_215_8277" style="mask-type:luminance" maskUnits="userSpaceOnUse" x="-18" y="0" width="66" height="33">
<path d="M47.0905 0H-17.0906V33H47.0905V0Z" fill="white"/>
</mask>
<g mask="url(#mask1_215_8277)">
<path d="M29.1803 0H29.52C29.5834 0.398957 29.5116 0.530003 29.2677 0.854757C27.6761 2.97325 25.9557 5.04926 24.123 6.96365C23.4459 7.67086 22.7718 8.40902 22.0596 9.07718C21.1515 9.94186 20.2225 10.784 19.2731 11.6027C18.9145 11.9128 17.6982 12.8226 17.4838 13.1209C17.5326 13.1974 17.6441 13.2506 17.728 13.2784C18.5923 13.5645 19.4602 13.8293 20.2784 14.2339C20.3137 14.2514 20.7448 14.3683 20.8287 14.3928C21.1504 14.4865 21.8933 14.9709 22.1706 15.0003L22.1973 15.0023C22.3714 15.1016 22.8929 15.2855 23.1302 15.4016C24.7259 16.1703 26.2857 17.011 27.8053 17.9208C28.0737 18.0814 28.7173 18.4446 28.9111 18.6581C28.9527 18.8026 28.9925 18.9477 29.0302 19.0933C28.5128 19.0153 27.1751 18.2986 26.624 18.0439C25.3609 17.4599 24.1758 16.9967 22.874 16.5189C21.7278 16.0877 20.5702 15.6865 19.403 15.3158C18.7134 15.104 17.9829 14.946 17.2762 14.7302C16.8812 14.6095 16.1978 14.4297 15.7933 14.376C15.6909 14.3624 15.4009 14.5954 15.2933 14.674C14.6835 15.1207 14.0482 15.519 13.4258 15.9413C11.8896 16.9842 10.2272 17.8964 8.45829 18.4854C8.13889 18.5917 6.65199 18.8586 6.25749 18.9032C5.03469 19.0413 3.30609 18.8464 2.12629 18.4504C1.80509 18.3425 1.60699 18.1523 1.34559 17.9742C0.62789 17.485 0.156789 16.5707 0.0245894 15.7279C-0.105911 14.8955 0.31839 13.7146 0.83999 13.0561C0.99709 12.8578 1.15399 12.8131 1.28739 12.691C1.97439 12.0618 2.51189 11.9397 3.32939 11.6456C6.22999 10.602 9.13639 10.9558 12.0479 11.7166C12.2477 11.7688 12.8287 11.8533 13.0278 11.9068C13.3385 11.9906 14.7848 12.4175 15.0431 12.2956C15.6672 12.0009 16.8617 11.1554 17.4534 10.7145C17.7777 10.4728 18.0596 10.3539 18.3751 10.1049C18.638 9.95649 18.8997 9.58853 19.1421 9.44346C19.3378 9.32637 19.45 9.30358 19.6737 9.13217C22.6754 6.83095 25.4428 4.23904 27.9354 1.3941C28.3307 0.935623 28.8225 0.49408 29.1803 0ZM2.96249 15.774C3.79419 16.587 3.96189 16.4679 5.10099 16.4848C5.90989 16.4968 6.52229 16.3222 7.30109 16.1111C7.50079 16.057 7.71989 15.9564 7.91239 15.9029C9.27849 15.6529 11.3897 14.3466 12.7113 13.7515C11.7117 13.5219 10.9056 13.4806 9.88959 13.3772C8.85679 13.272 8.10579 13.1735 7.05859 13.2111C6.68349 13.2374 6.33389 13.275 5.96209 13.3272C4.62569 13.5148 2.38989 13.8828 2.96249 15.774Z" fill="#EA5556"/>
</g>
</g>
</g>
<defs>
<clipPath id="clip0_215_8277">
<rect width="30" height="19" fill="white"/>
</clipPath>
</defs>
</svg>
