<svg width="120" height="34" viewBox="0 0 120 34" fill="none" xmlns="http://www.w3.org/2000/svg">
<g clip-path="url(#clip0_215_8248)">
<mask id="mask0_215_8248" style="mask-type:luminance" maskUnits="userSpaceOnUse" x="0" y="0" width="120" height="34">
<path d="M120 0H0V34H120V0Z" fill="white"/>
</mask>
<g mask="url(#mask0_215_8248)">
<mask id="mask1_215_8248" style="mask-type:luminance" maskUnits="userSpaceOnUse" x="0" y="0" width="120" height="34">
<path d="M120 0.0859375H0V33.9139H120V0.0859375Z" fill="white"/>
</mask>
<g mask="url(#mask1_215_8248)">
<path d="M4.16374 0.747573C5.63454 0.59054 7.58595 0.775529 8.97218 1.29105C11.0118 2.05983 12.6652 3.60336 13.5724 5.58541C15.296 9.39504 14.4557 14.7547 10.8405 17.2028C10.3883 17.509 9.59817 17.825 9.08143 18.052C6.11426 19.1497 3.23034 19.0526 0.164824 18.8194C0.151115 17.6604 0.351678 16.4595 0.330491 15.3129C0.242717 10.569 0.478086 5.78838 0.0177612 1.06493C1.37728 0.867039 2.78586 0.84327 4.16374 0.747573ZM3.09512 3.59802C3.27886 5.3374 3.2242 8.50422 3.22714 10.3832C3.22972 12.0405 3.36129 14.7716 3.28411 16.3233C5.43336 16.2609 7.30386 16.3785 9.10464 15.069C13.5673 10.9518 11.7768 2.84526 4.59015 3.50962L3.09512 3.59802Z" fill="#0A74AD"/>
<path d="M78.705 0.318359C78.7976 0.348983 78.7346 0.322717 78.8735 0.436308C78.7969 6.15988 79.5176 13.0447 79.7145 18.8765C78.7941 18.7616 77.7461 18.8026 76.8096 18.8115C76.7413 16.2245 76.5507 13.6269 76.5337 11.0337C76.5265 9.87668 76.4518 8.73607 76.5525 7.58076C75.9069 8.47731 71.7732 14.3035 71.2533 14.4735C70.7395 13.9305 69.9668 12.807 69.4967 12.1678L66.3874 7.9195C66.4903 9.43072 66.3942 11.2714 66.339 12.7937C66.2731 14.8171 66.2706 16.8494 66.1816 18.8693C65.2558 18.8141 64.2908 18.8266 63.3607 18.823L63.851 6.56707C63.9258 4.52956 64.1046 2.4099 64.0227 0.389662C65.5602 2.15067 67.1964 4.50748 68.6001 6.39828C69.3507 7.41009 70.8185 9.33632 71.4142 10.3428C72.088 9.55097 72.8895 8.24176 73.5472 7.37441C75.2421 5.13725 76.9549 2.48744 78.705 0.318359Z" fill="#0A74AD"/>
<path d="M27.0723 0.109375C27.647 0.18433 37.4211 10.9788 38.8394 12.3221C38.4776 10.726 38.6439 7.64587 38.603 5.88262C38.5738 4.63537 38.5225 2.2448 38.6137 1.08958C39.4522 0.975635 40.5629 1.03546 41.4922 0.955962C41.588 2.83287 41.4253 5.26136 41.4192 7.22616L41.3224 15.558C41.3138 16.1055 41.3883 18.5607 41.2248 18.8892L41.0564 18.9186C38.5054 16.0174 35.5973 13.2221 33.0116 10.332C32.101 9.3143 30.5433 7.87287 29.7984 6.79334C30.0038 10.5969 29.8955 14.9642 29.9785 18.8269C28.9658 18.7904 27.9666 18.8331 26.9274 18.7895C27.128 17.4301 27.0561 15.7165 27.1202 14.3037C27.2293 11.8948 27.1766 9.44462 27.1904 7.02967C27.2038 4.69366 27.2311 2.4435 27.0723 0.109375Z" fill="#0A74AD"/>
<path d="M108.582 1.08238C110.557 1.18022 112.406 1.11728 114.381 1.07944C116.227 1.04401 118.09 1.10526 119.936 1.01953C119.793 1.80496 119.596 3.07431 119.406 3.80962C118.347 3.64306 117.391 3.65704 116.324 3.62446L116.231 3.5463C115.542 3.50036 112.302 3.32215 111.887 3.60844C111.738 3.68749 111.669 3.68044 111.658 3.8025C111.536 5.14839 111.815 6.80471 111.62 8.11723C113.469 8.00054 115.367 8.04292 117.224 8.01721C117.683 8.0108 119.223 7.93474 119.567 7.98203C119.515 8.58025 119.216 10.274 119.053 10.864C116.57 10.7892 114.085 10.7608 111.601 10.7794C111.703 11.651 111.767 15.3996 111.602 16.2088C113.868 16.1011 118.117 16.2827 120.061 15.802C119.875 16.7821 119.742 17.8335 119.479 18.7797C117.325 18.8171 115.17 18.8251 113.015 18.8038C111.62 18.8047 109.952 18.8616 108.579 18.8002C108.722 14.7916 108.573 10.775 108.72 6.76287C108.788 4.92406 108.669 2.9236 108.582 1.08238Z" fill="#0A74AD"/>
<path d="M92.5229 1.1035C94.0298 1.23818 96.9668 1.14845 98.5556 1.15148C100.23 1.15477 103.342 1.23159 104.887 1.04688C102.853 4.48281 100.969 8.25024 98.9259 11.7135C98.0083 13.2695 97.1776 14.9885 96.1805 16.4921C98.5407 16.1636 102.144 16.5437 104.485 16.1983C104.417 16.89 104.469 18.0437 104.48 18.7701C103.464 18.8494 101.968 18.7799 100.925 18.7968C97.9093 18.8476 94.7591 18.7043 91.7598 18.82L96.8831 9.4881C97.7366 7.9354 99.2635 4.99415 100.236 3.64254C99.2528 3.65901 92.561 3.80366 92.2387 3.5764C92.0553 3.04824 92.1354 2.04329 92.1436 1.45601C92.1461 1.23586 92.3598 1.17569 92.5229 1.1035Z" fill="#0A74AD"/>
<path d="M52.4482 0.125C52.5081 0.15589 52.5682 0.186869 52.6281 0.217759C53.2986 1.74446 54.2749 4.08224 54.8881 5.53406L60.562 18.8641C59.5215 18.784 58.4589 18.8036 57.4149 18.8098C56.6657 16.9992 55.9008 15.1938 55.1203 13.3956C54.2842 11.4852 53.1405 8.89025 52.5985 6.87838L52.5109 6.79712C52.1103 6.9741 51.0909 10.3716 50.8021 11.0285C49.6825 13.5763 48.7393 16.2238 47.6479 18.7796C46.6163 18.8018 45.5516 18.7974 44.5168 18.8054C45.1079 17.5564 45.7877 15.7929 46.3357 14.4905L50.186 5.31322C50.8085 3.8296 51.7158 1.5115 52.4482 0.125Z" fill="#0A74AD"/>
<path d="M21.5538 0.943956C21.6833 0.890633 21.6453 0.911912 21.8063 0.930251C21.7904 0.902565 21.7024 17.2326 21.7664 18.8474C20.8452 18.7922 19.8659 18.8073 18.9389 18.8056L18.7577 18.7593C18.6094 18.4352 18.7876 15.4717 18.7945 14.8023L18.8211 5.54802C18.8195 4.45709 18.7212 2.12793 18.8249 1.19624C19.2417 0.885559 20.9104 0.96906 21.5538 0.943956Z" fill="#0A74AD"/>
<path d="M87.5406 0.949544L87.6481 0.927734L87.7745 1.01702C87.8173 2.46717 87.6713 4.00171 87.6784 5.4686C87.7015 9.87591 87.5377 14.432 87.7104 18.8269C86.9246 18.7584 85.721 18.8064 84.9038 18.8144L84.7418 18.7779C84.5182 18.4771 84.7258 16.0228 84.7311 15.4539L84.7496 6.70848C84.7525 4.81476 84.8077 2.99195 84.6029 1.10702C85.4931 0.981413 86.6279 0.974559 87.5406 0.949544Z" fill="#0A74AD"/>
<path d="M82.5561 26.1934C85.9139 26.5878 85.142 30.0133 85.1715 32.5985C85.5935 32.6795 86.1045 32.6439 86.2095 33.113C85.7954 33.6908 82.9467 33.7807 82.4678 33.3026L82.5372 33.1112C82.9075 32.7676 83.0973 32.7382 83.5699 32.57C83.5966 31.6584 83.6304 29.0831 83.3117 28.1563C83.1977 27.8261 82.508 27.6605 82.1473 27.5457C81.454 27.7282 81.1307 27.827 80.5122 28.1679C80.7105 29.5807 80.6493 31.0887 80.6072 32.5157C81.0499 32.6341 81.501 32.6528 81.632 33.1308L81.4861 33.308C80.822 33.6276 78.3739 33.8314 77.9039 33.2786C78.0231 32.8362 78.5288 32.7267 78.9212 32.578C78.9461 32.1783 78.9194 31.7519 78.9062 31.3504C78.8973 30.6569 79.1224 28.6023 78.558 27.9516C78.0552 27.2501 76.0885 27.7068 76.0227 28.5267C75.9212 29.7988 76.012 31.2311 75.9746 32.5237C76.4037 32.6359 76.9763 32.6875 77.1062 33.1522C76.7099 33.7175 73.7733 33.7664 73.273 33.2314L73.3496 33.0552C73.6967 32.7712 73.9513 32.7391 74.384 32.6181C74.3697 31.565 74.359 30.5154 74.3519 29.4632C74.3484 28.9673 74.4292 28.127 74.368 27.6997C74.0866 27.365 73.8381 27.5635 73.3645 27.2261C73.2363 26.9439 73.2534 27.0845 73.288 26.7925C73.6558 26.5148 75.4932 26.1899 75.8375 26.4089C75.8589 26.6341 75.8713 26.8344 75.8831 27.0587C76.2595 27.1896 78.2243 24.8635 80.2326 27.3658C81.0516 26.5887 81.4334 26.375 82.5561 26.1934Z" fill="#3D3D3D"/>
<path d="M69.3828 26.207C71.3441 26.3771 72.4355 27.3002 72.6321 29.2925C72.8884 31.8946 71.9163 33.5272 69.2421 33.7916C68.467 33.7337 67.8036 33.6608 67.1851 33.1694C65.1953 31.5857 65.651 27.2886 68.1554 26.4207C68.5638 26.2791 68.9619 26.2453 69.3828 26.207ZM69.203 32.8444C69.8664 32.661 70.1074 32.5738 70.476 31.9605C71.1803 30.7925 71.1322 27.5495 69.4355 27.261C67.6326 27.4934 67.6782 29.3842 67.7904 30.8441C67.8598 31.745 68.3324 32.5151 69.203 32.8444Z" fill="#3D3D3D"/>
<path d="M107.487 26.1962C110.731 25.9746 111.65 30.0553 110.283 32.336C109.676 33.3482 108.815 33.5698 107.752 33.7844C105.847 33.7808 104.509 33.0464 104.269 31.0354C103.969 28.5126 104.747 26.5416 107.487 26.1962ZM107.7 32.8443C109.382 32.0734 109.312 29.7054 108.766 28.1787C108.564 27.617 108.061 27.3223 107.482 27.2449C105.741 27.7149 105.824 30.0428 106.16 31.4823C106.351 32.2986 106.884 32.7393 107.7 32.8443Z" fill="#3D3D3D"/>
<path d="M47.4972 26.1981C47.9206 26.1474 49.111 26.3281 49.4781 26.54C51.3739 27.634 50.5492 30.9331 50.7326 32.7216L50.8943 32.8417C51.1635 32.8667 51.4295 32.8489 51.6225 33.0144C51.6438 33.2949 51.6606 33.1542 51.5167 33.4408C51.2033 33.7026 50.9228 33.7408 50.5254 33.8512C49.7463 33.6607 49.6024 33.5744 49.0081 33.0821C47.9103 33.9723 46.6003 34.0106 45.4142 33.269C45.0424 32.8106 44.8344 32.4296 44.8555 31.8269C44.9377 29.4759 47.3968 29.7224 49.0149 29.7402C48.934 28.0791 48.9187 26.7946 46.8695 27.6251C46.6925 28.0889 46.6312 28.4592 46.2488 28.6907C45.1841 28.7495 44.4431 26.6815 47.4972 26.1981ZM48.1827 32.6192C49.0195 32.4091 49.0462 32.2569 49.0024 31.4254L48.9721 30.7124C48.4334 30.6972 47.8594 30.6554 47.3317 30.7319C46.7612 31.0266 46.3606 31.5376 46.7288 32.1785C46.8712 32.426 47.1112 32.6014 47.3901 32.6628C47.6219 32.7127 47.9544 32.6753 48.1827 32.6192Z" fill="#3D3D3D"/>
<path d="M89.6094 26.1935C89.9904 26.1534 91.1235 26.3208 91.476 26.5024C93.5377 27.56 92.6368 30.7558 92.8505 32.6261C92.8711 32.8033 93.4683 32.8807 93.7026 33.1629C93.7062 33.3579 93.6029 33.5475 93.4825 33.6579C92.8907 34.2045 91.7057 33.4068 91.1976 33.2742C90.8735 33.1896 89.5852 33.8751 89.0361 33.8341C88.346 33.7834 87.86 33.5671 87.349 33.1015C86.8266 32.303 86.6689 31.2134 87.4409 30.519C88.4635 29.5994 89.8808 29.7258 91.1513 29.7436C91.1181 28.1048 90.8885 26.6929 88.9257 27.6766C88.7691 28.1119 88.7075 28.5107 88.3496 28.7101C87.1293 28.6531 86.7348 26.6564 89.6094 26.1935ZM90.2903 32.6217C91.4671 32.3279 91.184 31.7555 91.0914 30.7202C90.5103 30.6944 90.0125 30.6534 89.4349 30.7282C88.1103 31.4208 88.6683 32.9671 90.2903 32.6217Z" fill="#3D3D3D"/>
<path d="M116.36 26.2031C119.58 26.2004 118.992 30.3942 118.985 32.6081C119.385 32.6838 119.945 32.6891 119.981 33.1609C119.479 33.6861 116.537 33.7769 116.2 33.2437C116.379 32.8431 116.871 32.7238 117.257 32.6134C117.215 31.2327 117.372 29.7959 117.123 28.4437C116.865 27.0488 114.685 27.5241 114.291 28.3796L114.303 32.601C114.728 32.6909 115.16 32.6882 115.318 33.1289C114.923 33.7039 111.954 33.744 111.433 33.2482L111.493 33.0933C111.895 32.7968 112.058 32.7728 112.532 32.6419L112.554 27.5704C112.094 27.4654 111.677 27.3986 111.407 26.99C111.417 26.7372 111.385 26.8556 111.55 26.6446C112.091 26.4897 112.565 26.4879 113.072 26.414C114.495 26.2066 113.816 26.7425 114.203 27.0737C115.037 26.6054 115.421 26.2823 116.36 26.2031Z" fill="#3D3D3D"/>
<path d="M52.0936 26.4565C52.8335 26.4467 53.5731 26.4343 54.3127 26.4173C54.2222 27.1046 54.2283 27.8354 54.2454 28.5298C54.3002 30.7304 53.7971 33.4589 57.0641 32.1583C57.0855 30.5871 57.0716 28.9909 57.0723 27.4179C56.6596 27.4259 56.2024 27.523 55.9421 27.1838C56.0603 26.1734 58.0021 26.4405 58.8232 26.4191C58.7794 27.1509 58.7858 27.8452 58.7886 28.5761C58.7733 29.9096 58.7801 31.2432 58.8079 32.5758C59.2045 32.7708 59.4727 32.8624 59.5994 33.3067L59.4748 33.4562C58.9268 33.661 58.2442 33.6494 57.6335 33.6975C57.4719 33.3574 57.4498 33.2693 57.1973 33.0031C56.3545 33.3734 56.1508 33.7696 55.1555 33.774C51.9889 33.7874 52.6295 29.5918 52.6872 27.3699C52.2794 27.393 51.584 27.5159 51.5509 26.9666C51.7232 26.6595 51.7806 26.6497 52.0936 26.4565Z" fill="#3D3D3D"/>
<path d="M62.4474 24.4457L62.5354 24.4297L62.644 24.5249C62.717 25.0671 62.6753 25.927 62.6635 26.503C63.1959 26.4647 65.2017 26.1994 65.3181 26.9267C64.8527 27.5641 63.39 27.403 62.6831 27.3149L62.67 28.4294C62.66 29.3588 62.4321 31.7071 63.1193 32.4122C63.6171 32.9232 64.8962 31.7962 65.3904 32.2893C65.4278 32.6143 65.2897 32.7736 65.1269 33.0638C64.6053 33.5436 63.4968 33.7644 62.8231 33.7956C60.3259 33.9113 60.9793 29.0944 60.9882 27.3424C60.6438 27.3781 60.151 27.4466 59.8544 27.289C59.6646 26.6134 60.4897 26.47 60.9554 26.3953C61.0238 26.227 61.007 24.9816 61.0249 24.646C61.5875 24.5134 61.8741 24.4929 62.4474 24.4457Z" fill="#3D3D3D"/>
<path d="M96.2571 24.4399L96.3597 24.4336C96.6132 24.7221 96.5046 26.0262 96.4957 26.5123C97.054 26.4856 98.942 26.2354 99.1264 26.9209C98.6617 27.5654 97.1918 27.3945 96.4932 27.3001C96.5224 28.2571 96.4879 29.6939 96.4825 30.6464C96.4636 34.0559 98.52 31.6924 99.2197 32.2621C99.2945 32.563 99.1923 32.6903 99.0588 32.9761C98.149 33.6767 96.2386 34.2384 95.4274 33.2654C94.4482 32.0903 94.8161 28.8651 94.8107 27.3464C94.3514 27.39 94.0387 27.4844 93.672 27.261C93.4957 26.6734 94.33 26.5123 94.7876 26.3431C94.8684 26.1366 94.8267 25.0078 94.8292 24.6749C95.4214 24.5218 95.6546 24.4977 96.2571 24.4399Z" fill="#3D3D3D"/>
<path d="M102.034 26.2953C102.281 26.224 102.37 26.1938 102.57 26.3264C102.63 26.7395 102.598 28.1318 102.596 28.6142C102.582 29.9415 102.598 31.2688 102.645 32.5961C103.084 32.6549 103.401 32.6442 103.679 32.9611C103.663 33.8567 101.081 33.5594 100.393 33.5478C100.12 33.5353 100.002 33.5246 99.8344 33.3546L99.9162 33.1525C100.33 32.7929 100.512 32.7573 101.015 32.5872C101.064 31.0347 100.996 29.0798 100.998 27.4792C100.528 27.3938 100.153 27.335 99.8279 26.9647L99.8707 26.7982C100.453 26.354 101.301 26.3585 102.034 26.2953Z" fill="#3D3D3D"/>
<path d="M101.391 23.5478C101.744 23.4312 102.132 23.5149 102.404 23.7668C102.677 24.0187 102.791 24.3988 102.702 24.7594C102.613 25.1199 102.337 25.4039 101.978 25.5009C101.445 25.6451 100.894 25.3389 100.735 24.8092C100.576 24.2804 100.867 23.7214 101.391 23.5478Z" fill="#3D3D3D"/>
<path d="M111.887 3.60835C112.303 3.32206 115.542 3.50028 116.231 3.54622L116.325 3.62438C115.431 3.69061 112.712 3.6957 111.887 3.60835Z" fill="#0A74AD" fill-opacity="0.968627"/>
</g>
</g>
</g>
<defs>
<clipPath id="clip0_215_8248">
<rect width="120" height="34" fill="white"/>
</clipPath>
</defs>
</svg>
