<svg width="64" height="33" viewBox="0 0 64 33" fill="none" xmlns="http://www.w3.org/2000/svg">
<g clip-path="url(#clip0_215_8200)">
<mask id="mask0_215_8200" style="mask-type:luminance" maskUnits="userSpaceOnUse" x="0" y="0" width="64" height="33">
<path d="M64 0H0V33H64V0Z" fill="white"/>
</mask>
<g mask="url(#mask0_215_8200)">
<mask id="mask1_215_8200" style="mask-type:luminance" maskUnits="userSpaceOnUse" x="-1" y="0" width="66" height="33">
<path d="M64.0905 0H-0.0905762V33H64.0905V0Z" fill="white"/>
</mask>
<g mask="url(#mask1_215_8200)">
<path d="M41.7945 22.707C41.8134 22.7283 41.8324 22.7496 41.8516 22.7709C41.8243 23.0708 41.8394 23.3763 41.8586 23.6761C42.0026 25.7971 42.1128 27.9202 42.1899 30.0444C42.2097 30.5709 42.2328 31.0973 42.2588 31.6235C42.2804 32.0018 42.3251 32.476 42.3193 32.8421C41.9379 32.8133 41.1319 32.9042 40.8091 32.7598C40.6628 32.6106 40.5911 27.8041 40.5423 27.157C40.5384 27.1061 40.5402 26.9102 40.5407 26.8463C40.303 27.2051 40.0805 27.4634 39.8334 27.8022L38.4763 29.6695C38.2544 29.9696 38.0621 30.1915 37.8516 30.5101C37.5338 30.053 37.1563 29.6178 36.8471 29.1607C36.3305 28.3965 35.7565 27.6798 35.2301 26.9255C35.2797 27.7911 35.2049 28.8491 35.2366 29.7911C35.1568 30.3726 35.1999 32.4612 35.0583 32.7512C34.8954 32.8933 33.815 32.8723 33.6289 32.7517C33.4065 32.3721 33.6596 30.3942 33.6744 29.8656C33.7004 28.9617 33.6297 27.9322 33.7674 27.0445C33.9332 25.9764 33.9002 24.942 33.9561 23.8662C33.9714 23.5754 33.9639 23.2237 34.0132 22.9403C34.2944 22.991 37.3566 27.5 37.9376 28.0821L37.9597 28.1042C38.2409 27.5465 38.5685 27.2098 38.9157 26.7166L41.0848 23.6638C41.2706 23.4033 41.6734 22.9712 41.7945 22.707Z" fill="#3E3D3D"/>
<path d="M14.2935 22.6113C14.296 22.6121 19.9578 28.6106 20.4184 29.1199C20.4345 28.5849 20.408 28.0462 20.407 27.5091L20.3835 23.1912C20.7701 23.2053 21.5619 23.2295 21.9213 23.1785C21.9384 24.2074 21.8735 25.2241 21.8756 26.2442L21.8671 29.8978C21.8659 30.8795 21.8754 31.9807 21.8366 32.9617C21.712 32.8541 21.7007 32.7286 21.5561 32.5818C21.2865 32.3957 20.6641 31.6502 20.3832 31.3589C18.8096 29.7282 17.2618 28.0727 15.7405 26.3931C15.7214 27.8583 15.7705 29.3514 15.7674 30.8177C15.7661 31.439 15.8038 32.2211 15.7593 32.8213C15.5678 32.8281 14.2566 32.8972 14.2169 32.7322C14.0328 31.9683 14.1854 31.0783 14.2223 30.3102C14.2954 28.7862 14.3033 27.2607 14.2977 25.736C14.297 25.1626 14.182 22.9941 14.2935 22.6113Z" fill="#3E3D3D"/>
<path d="M62.3239 23.1916C62.7836 23.1914 63.3025 23.2012 63.7554 23.1699C63.7216 23.4298 63.6195 24.3732 63.5335 24.5735C63.1187 24.6226 62.7365 24.5558 62.3343 24.5684C61.3879 24.5981 60.2963 24.4969 59.3635 24.6065C59.4887 25.0781 59.5132 26.4718 59.3851 26.9422C60.8786 26.9079 62.1022 26.9752 63.6371 26.8611C63.5371 27.1352 63.344 28.1624 63.2952 28.4773C62.9317 28.41 62.2878 28.4295 61.8933 28.4269C61.0779 28.4217 60.1763 28.376 59.3687 28.4357C59.547 29.4985 59.423 30.2385 59.3427 31.287L61.4121 31.2831C62.0568 31.2633 63.2928 31.249 63.8684 31.0713C63.7868 31.4429 63.7037 31.8527 63.6678 32.2261C63.6304 32.6148 63.5425 32.8224 63.1115 32.8445C62.855 32.8577 62.5796 32.8419 62.321 32.8416L60.651 32.8414L58.8578 32.8398C58.5333 32.8385 58.0853 32.8484 57.7777 32.812C57.6374 32.6909 57.7151 32.4794 57.7307 32.2637C57.8317 30.8538 57.8107 29.3197 57.8008 27.9002C57.7912 26.5119 57.871 24.5549 57.667 23.2238C59.1304 23.1445 60.8184 23.2451 62.3239 23.1916Z" fill="#3E3D3D"/>
<path d="M48.9407 23.2028L53.2068 23.2109C54.0157 23.2108 54.9701 23.2313 55.7657 23.1953C55.5846 23.4761 55.4913 23.7016 55.3336 23.9818L54.2459 25.9103C53.2024 27.7439 52.177 29.5875 51.1699 31.4412C51.622 31.3269 52.0068 31.3697 52.4527 31.3422C53.4258 31.2817 54.592 31.3752 55.5373 31.2918C55.5311 31.7735 55.5331 32.2553 55.543 32.7368L55.4765 32.8041C55.1616 32.8644 53.6955 32.8389 53.266 32.8389C51.9491 32.8389 50.6019 32.8488 49.2845 32.8228C49.0961 32.8191 48.8775 32.7809 48.692 32.743C48.9758 32.353 49.5926 31.1213 49.8431 30.6645L51.5417 27.5514C51.9689 26.7749 52.4283 26.0136 52.8246 25.2179C52.9277 25.0107 53.0462 24.7833 53.1855 24.5999C52.8035 24.6183 52.3298 24.5945 51.9367 24.5991C50.9469 24.6107 49.9296 24.59 48.942 24.6308C48.9464 24.154 48.9238 23.6804 48.9407 23.2028Z" fill="#3E3D3D"/>
<path d="M27.7721 22.6016L27.8669 22.638C27.9077 22.7233 28.0665 23.1815 28.1348 23.3414L29.2423 25.9689L30.6828 29.3559C31.0079 30.1084 31.3732 30.8131 31.611 31.603C31.7123 31.94 32.0179 32.3074 32.0553 32.6798C32.0348 32.7338 32.0324 32.7713 31.968 32.7861C31.5931 32.8739 30.7527 32.8677 30.4196 32.7422C30.1514 32.2581 30.0228 31.7056 29.8027 31.1997C29.1069 29.5991 28.3897 28.0037 27.7752 26.3687C27.7352 26.3121 27.7612 26.3324 27.6918 26.3103C27.632 26.4381 27.5943 26.6325 27.5444 26.7741C27.0926 28.0549 26.5994 29.3153 26.0475 30.5561C25.7471 31.2317 25.5478 32.2297 25.1001 32.8081C24.843 32.8437 23.7153 32.8916 23.5633 32.7146C23.5549 32.4932 24.0802 31.4149 24.1978 31.129L26.5547 25.4917C26.8405 24.8122 27.0658 24.0983 27.3932 23.4357C27.5034 23.2125 27.6221 22.7736 27.7721 22.6016Z" fill="#3E3D3D"/>
<path d="M46.5566 23.0957L46.613 23.1086C46.6821 23.2222 46.5821 24.8733 46.5805 25.164L46.6114 32.8276C46.0845 32.8484 45.638 32.8484 45.1103 32.812C45.037 32.8011 45.0292 32.7969 44.97 32.7525C44.8952 32.5176 44.9562 31.5736 44.9619 31.2883L44.9832 29.5032L44.9653 23.1139C45.3811 23.1597 46.1564 23.1359 46.5566 23.0957Z" fill="#3E3D3D"/>
<path d="M10.2917 23.1264C10.6897 23.138 11.088 23.1252 11.4845 23.0879C11.3129 25.0309 11.3669 26.9231 11.4224 28.868C11.45 29.8323 11.4047 30.8308 11.3829 31.7959C11.3785 31.9903 11.4488 32.65 11.3982 32.7862C11.302 32.8524 11.2564 32.8316 11.1191 32.8386C10.6632 32.8449 10.2073 32.8371 9.75192 32.8155C9.72102 32.4572 9.77486 32.0285 9.78806 31.6616C9.83748 30.287 9.83249 28.9155 9.83317 27.5405C9.83395 26.0682 9.85133 24.6108 9.77065 23.1396L10.2917 23.1264Z" fill="#3E3D3D"/>
<path d="M46.1803 0H46.52C46.5834 0.398957 46.5116 0.530003 46.2677 0.854757C44.6761 2.97325 42.9557 5.04926 41.123 6.96365C40.4459 7.67086 39.7718 8.40902 39.0596 9.07718C38.1515 9.94186 37.2225 10.784 36.2731 11.6027C35.9145 11.9128 34.6982 12.8226 34.4838 13.1209C34.5326 13.1974 34.6441 13.2506 34.728 13.2784C35.5923 13.5645 36.4602 13.8293 37.2784 14.2339C37.3137 14.2514 37.7448 14.3683 37.8287 14.3928C38.1504 14.4865 38.8933 14.9709 39.1706 15.0003L39.1973 15.0023C39.3714 15.1016 39.8929 15.2855 40.1302 15.4016C41.7259 16.1703 43.2857 17.011 44.8053 17.9208C45.0737 18.0814 45.7173 18.4446 45.9111 18.6581C45.9527 18.8026 45.9925 18.9477 46.0302 19.0933C45.5128 19.0153 44.1751 18.2986 43.624 18.0439C42.3609 17.4599 41.1758 16.9967 39.874 16.5189C38.7278 16.0877 37.5702 15.6865 36.403 15.3158C35.7134 15.104 34.9829 14.946 34.2762 14.7302C33.8812 14.6095 33.1978 14.4297 32.7933 14.376C32.6909 14.3624 32.4009 14.5954 32.2933 14.674C31.6835 15.1207 31.0482 15.519 30.4258 15.9413C28.8896 16.9842 27.2272 17.8964 25.4583 18.4854C25.1389 18.5917 23.652 18.8586 23.2575 18.9032C22.0347 19.0413 20.3061 18.8464 19.1263 18.4504C18.8051 18.3425 18.607 18.1523 18.3456 17.9742C17.6279 17.485 17.1568 16.5707 17.0246 15.7279C16.8941 14.8955 17.3184 13.7146 17.84 13.0561C17.9971 12.8578 18.154 12.8131 18.2874 12.691C18.9744 12.0618 19.5119 11.9397 20.3294 11.6456C23.23 10.602 26.1364 10.9558 29.0479 11.7166C29.2477 11.7688 29.8287 11.8533 30.0278 11.9068C30.3385 11.9906 31.7848 12.4175 32.0431 12.2956C32.6672 12.0009 33.8617 11.1554 34.4534 10.7145C34.7777 10.4728 35.0596 10.3539 35.3751 10.1049C35.638 9.95649 35.8997 9.58853 36.1421 9.44346C36.3378 9.32637 36.45 9.30358 36.6737 9.13217C39.6754 6.83095 42.4428 4.23904 44.9354 1.3941C45.3307 0.935623 45.8225 0.49408 46.1803 0ZM19.9625 15.774C20.7942 16.587 20.9619 16.4679 22.101 16.4848C22.9099 16.4968 23.5223 16.3222 24.3011 16.1111C24.5008 16.057 24.7199 15.9564 24.9124 15.9029C26.2785 15.6529 28.3897 14.3466 29.7113 13.7515C28.7117 13.5219 27.9056 13.4806 26.8896 13.3772C25.8568 13.272 25.1058 13.1735 24.0586 13.2111C23.6835 13.2374 23.3339 13.275 22.9621 13.3272C21.6257 13.5148 19.3899 13.8828 19.9625 15.774Z" fill="#EA5556"/>
<path d="M-0.0905762 23.1921C0.3149 23.0874 0.796435 23.0574 1.22156 23.0248C2.63278 22.9167 3.95179 22.8522 5.22736 23.5813C7.73229 25.0131 8.08737 28.3003 6.74118 30.661C5.92306 32.0953 4.47626 32.478 2.95335 32.7522C2.21986 32.8696 0.629102 32.8844 -0.0905762 32.6903V23.1921ZM1.49403 24.5864C1.47957 25.7712 1.50569 26.9987 1.51998 28.1873C1.53192 29.1806 1.50841 30.3083 1.55185 31.29C2.89447 31.3347 3.42442 31.4259 4.62647 30.7462C5.2456 30.101 5.55375 29.732 5.76292 28.8571C5.84929 28.4993 5.94164 28.0901 5.91781 27.718C5.86016 26.8181 5.69461 26.0269 5.03983 25.379C4.28982 24.6368 3.25375 24.4059 2.21403 24.5422C1.98788 24.5568 1.71698 24.5816 1.49403 24.5864Z" fill="#3E3D3D"/>
<path d="M39.1706 15.0001C39.221 14.8908 39.1909 14.9194 39.2779 14.8652C39.4468 14.902 39.4029 14.9676 39.6066 14.9925C39.4338 15.0134 39.2943 14.9684 39.1974 15.0021L39.1706 15.0001Z" fill="black" fill-opacity="0.0156863"/>
</g>
</g>
</g>
<defs>
<clipPath id="clip0_215_8200">
<rect width="64" height="33" fill="white"/>
</clipPath>
</defs>
</svg>
